<svg width="1721" height="536" viewBox="0 0 1721 536" fill="none" xmlns="http://www.w3.org/2000/svg">
<g opacity="0.7">
<path d="M526.213 272.348C526.213 269.581 525.236 267.465 523.283 266C521.33 264.503 517.814 262.94 512.736 261.312C507.658 259.652 503.638 258.025 500.676 256.43C492.603 252.068 488.566 246.192 488.566 238.803C488.566 234.962 489.641 231.544 491.789 228.549C493.97 225.521 497.079 223.161 501.115 221.469C505.184 219.776 509.742 218.93 514.787 218.93C519.865 218.93 524.39 219.857 528.361 221.713C532.333 223.536 535.409 226.124 537.59 229.477C539.803 232.829 540.91 236.638 540.91 240.902H526.262C526.262 237.647 525.236 235.124 523.186 233.334C521.135 231.511 518.254 230.6 514.543 230.6C510.962 230.6 508.179 231.365 506.193 232.895C504.208 234.392 503.215 236.378 503.215 238.852C503.215 241.163 504.37 243.1 506.682 244.662C509.025 246.225 512.46 247.689 516.984 249.057C525.318 251.563 531.389 254.672 535.197 258.383C539.006 262.094 540.91 266.716 540.91 272.25C540.91 278.402 538.583 283.236 533.928 286.752C529.273 290.235 523.007 291.977 515.129 291.977C509.66 291.977 504.68 290.984 500.188 288.998C495.695 286.98 492.261 284.229 489.885 280.746C487.541 277.263 486.369 273.227 486.369 268.637H501.066C501.066 276.482 505.754 280.404 515.129 280.404C518.612 280.404 521.33 279.704 523.283 278.305C525.236 276.872 526.213 274.887 526.213 272.348ZM604.68 219.906V266.732C604.68 274.512 602.238 280.665 597.355 285.189C592.505 289.714 585.865 291.977 577.434 291.977C569.133 291.977 562.541 289.779 557.658 285.385C552.775 280.99 550.285 274.952 550.188 267.27V219.906H564.836V266.83C564.836 271.485 565.943 274.887 568.156 277.035C570.402 279.151 573.495 280.209 577.434 280.209C585.669 280.209 589.852 275.88 589.982 267.221V219.906H604.68ZM653.557 272.348C653.557 269.581 652.58 267.465 650.627 266C648.674 264.503 645.158 262.94 640.08 261.312C635.002 259.652 630.982 258.025 628.02 256.43C619.947 252.068 615.91 246.192 615.91 238.803C615.91 234.962 616.984 231.544 619.133 228.549C621.314 225.521 624.423 223.161 628.459 221.469C632.528 219.776 637.085 218.93 642.131 218.93C647.209 218.93 651.734 219.857 655.705 221.713C659.676 223.536 662.753 226.124 664.934 229.477C667.147 232.829 668.254 236.638 668.254 240.902H653.605C653.605 237.647 652.58 235.124 650.529 233.334C648.479 231.511 645.598 230.6 641.887 230.6C638.306 230.6 635.523 231.365 633.537 232.895C631.551 234.392 630.559 236.378 630.559 238.852C630.559 241.163 631.714 243.1 634.025 244.662C636.369 246.225 639.803 247.689 644.328 249.057C652.661 251.563 658.732 254.672 662.541 258.383C666.35 262.094 668.254 266.716 668.254 272.25C668.254 278.402 665.926 283.236 661.271 286.752C656.617 290.235 650.35 291.977 642.473 291.977C637.004 291.977 632.023 290.984 627.531 288.998C623.039 286.98 619.605 284.229 617.229 280.746C614.885 277.263 613.713 273.227 613.713 268.637H628.41C628.41 276.482 633.098 280.404 642.473 280.404C645.956 280.404 648.674 279.704 650.627 278.305C652.58 276.872 653.557 274.887 653.557 272.348ZM731.73 231.771H709.953V291H695.305V231.771H673.82V219.906H731.73V231.771ZM774.406 276.352H748.723L743.84 291H728.264L754.729 219.906H768.303L794.914 291H779.338L774.406 276.352ZM752.678 264.486H770.451L761.516 237.875L752.678 264.486ZM817.131 291H802.482V219.906H817.131V291ZM888.566 291H873.918L845.402 244.223V291H830.754V219.906H845.402L873.967 266.781V219.906H888.566V291ZM942.375 276.352H916.691L911.809 291H896.232L922.697 219.906H936.271L962.883 291H947.307L942.375 276.352ZM920.646 264.486H938.42L929.484 237.875L920.646 264.486ZM969.523 291V219.906H994.426C1003.05 219.906 1009.6 221.566 1014.05 224.887C1018.51 228.174 1020.74 233.008 1020.74 239.389C1020.74 242.872 1019.85 245.948 1018.06 248.617C1016.27 251.254 1013.78 253.191 1010.59 254.428C1014.23 255.339 1017.1 257.178 1019.18 259.945C1021.3 262.712 1022.36 266.098 1022.36 270.102C1022.36 276.938 1020.17 282.113 1015.81 285.629C1011.45 289.145 1005.23 290.935 997.16 291H969.523ZM984.172 260.043V279.232H996.721C1000.17 279.232 1002.86 278.419 1004.78 276.791C1006.73 275.131 1007.71 272.852 1007.71 269.955C1007.71 263.445 1004.34 260.141 997.6 260.043H984.172ZM984.172 249.691H995.012C1002.4 249.561 1006.1 246.615 1006.1 240.854C1006.1 237.631 1005.15 235.32 1003.26 233.92C1001.41 232.488 998.462 231.771 994.426 231.771H984.172V249.691ZM1048.97 291H1034.32V219.906H1048.97V291ZM1077.24 279.232H1108.34V291H1062.59V219.906H1077.24V279.232ZM1132.37 291H1117.72V219.906H1132.37V291ZM1198.04 231.771H1176.26V291H1161.61V231.771H1140.13V219.906H1198.04V231.771ZM1231.73 251.938L1246.53 219.906H1262.54L1239.2 265.219V291H1224.31V265.219L1200.97 219.906H1217.03L1231.73 251.938Z" fill="#455469" fill-opacity="0.3"/>
<path d="M1110.3 188.508C1108.98 190.087 1107.12 191.315 1104.71 192.194C1102.3 193.057 1099.63 193.488 1096.7 193.488C1093.62 193.488 1090.92 192.821 1088.59 191.486C1086.28 190.135 1084.49 188.182 1083.22 185.627C1081.97 183.072 1081.33 180.069 1081.29 176.618V174.201C1081.29 170.653 1081.89 167.585 1083.08 164.997C1084.28 162.393 1086.01 160.407 1088.25 159.04C1090.52 157.657 1093.16 156.965 1096.19 156.965C1100.4 156.965 1103.7 157.974 1106.08 159.992C1108.45 161.994 1109.86 164.916 1110.3 168.757H1103.17C1102.84 166.722 1102.12 165.233 1101 164.289C1099.89 163.345 1098.36 162.873 1096.41 162.873C1093.92 162.873 1092.02 163.809 1090.72 165.681C1089.42 167.552 1088.76 170.336 1088.74 174.03V176.301C1088.74 180.028 1089.45 182.844 1090.87 184.748C1092.28 186.652 1094.36 187.604 1097.09 187.604C1099.84 187.604 1101.8 187.019 1102.97 185.847V179.719H1096.31V174.323H1110.3V188.508ZM1123.58 187.116H1139.13V193H1116.26V157.453H1123.58V187.116ZM1170.99 176.032C1170.99 179.532 1170.37 182.6 1169.14 185.236C1167.9 187.873 1166.13 189.908 1163.81 191.34C1161.52 192.772 1158.88 193.488 1155.9 193.488C1152.96 193.488 1150.33 192.78 1148.02 191.364C1145.71 189.948 1143.92 187.93 1142.65 185.31C1141.38 182.673 1140.74 179.646 1140.72 176.228V174.47C1140.72 170.97 1141.35 167.894 1142.6 165.241C1143.87 162.572 1145.65 160.529 1147.95 159.113C1150.26 157.681 1152.89 156.965 1155.86 156.965C1158.82 156.965 1161.45 157.681 1163.74 159.113C1166.05 160.529 1167.83 162.572 1169.09 165.241C1170.36 167.894 1170.99 170.962 1170.99 174.445V176.032ZM1163.57 174.421C1163.57 170.694 1162.9 167.862 1161.57 165.925C1160.23 163.988 1158.33 163.02 1155.86 163.02C1153.4 163.02 1151.5 163.98 1150.17 165.9C1148.83 167.805 1148.16 170.604 1148.14 174.299V176.032C1148.14 179.662 1148.81 182.478 1150.14 184.479C1151.48 186.481 1153.4 187.482 1155.9 187.482C1158.36 187.482 1160.25 186.522 1161.57 184.602C1162.89 182.665 1163.55 179.849 1163.57 176.154V174.421ZM1176.31 193V157.453H1188.77C1193.08 157.453 1196.35 158.283 1198.58 159.943C1200.81 161.587 1201.92 164.004 1201.92 167.194C1201.92 168.936 1201.48 170.474 1200.58 171.809C1199.69 173.127 1198.44 174.095 1196.85 174.714C1198.67 175.17 1200.1 176.089 1201.14 177.473C1202.2 178.856 1202.73 180.549 1202.73 182.551C1202.73 185.969 1201.64 188.557 1199.46 190.314C1197.28 192.072 1194.17 192.967 1190.13 193H1176.31ZM1183.64 177.521V187.116H1189.91C1191.64 187.116 1192.98 186.709 1193.94 185.896C1194.92 185.065 1195.41 183.926 1195.41 182.478C1195.41 179.222 1193.72 177.57 1190.35 177.521H1183.64ZM1183.64 172.346H1189.06C1192.75 172.281 1194.6 170.808 1194.6 167.927C1194.6 166.315 1194.13 165.16 1193.18 164.46C1192.26 163.744 1190.78 163.386 1188.77 163.386H1183.64V172.346ZM1228.32 185.676H1215.47L1213.03 193H1205.25L1218.48 157.453H1225.26L1238.57 193H1230.78L1228.32 185.676ZM1217.45 179.743H1226.34L1221.87 166.438L1217.45 179.743ZM1249.21 187.116H1264.77V193H1241.89V157.453H1249.21V187.116Z" fill="#909090"/>
<path d="M1311.93 244.386H1301.04V274H1293.72V244.386H1282.98V238.453H1311.93V244.386ZM1329.29 260.987H1323.46V274H1316.13V238.453H1329.34C1333.54 238.453 1336.78 239.389 1339.06 241.261C1341.33 243.132 1342.47 245.777 1342.47 249.195C1342.47 251.62 1341.94 253.647 1340.89 255.274C1339.85 256.886 1338.26 258.172 1336.13 259.132L1343.82 273.658V274H1335.96L1329.29 260.987ZM1323.46 255.055H1329.36C1331.2 255.055 1332.63 254.591 1333.64 253.663C1334.64 252.719 1335.15 251.425 1335.15 249.781C1335.15 248.105 1334.67 246.786 1333.71 245.826C1332.76 244.866 1331.31 244.386 1329.34 244.386H1323.46V255.055ZM1374.97 238.453V261.866C1374.97 265.756 1373.75 268.832 1371.31 271.095C1368.88 273.357 1365.56 274.488 1361.35 274.488C1357.2 274.488 1353.9 273.39 1351.46 271.192C1349.02 268.995 1347.77 265.976 1347.72 262.135V238.453H1355.05V261.915C1355.05 264.243 1355.6 265.943 1356.71 267.018C1357.83 268.076 1359.38 268.604 1361.35 268.604C1365.46 268.604 1367.56 266.44 1367.62 262.11V238.453H1374.97ZM1399.41 264.674C1399.41 263.29 1398.92 262.232 1397.94 261.5C1396.97 260.751 1395.21 259.97 1392.67 259.156C1390.13 258.326 1388.12 257.512 1386.64 256.715C1382.6 254.534 1380.58 251.596 1380.58 247.901C1380.58 245.981 1381.12 244.272 1382.2 242.774C1383.29 241.261 1384.84 240.081 1386.86 239.234C1388.89 238.388 1391.17 237.965 1393.69 237.965C1396.23 237.965 1398.5 238.429 1400.48 239.356C1402.47 240.268 1404.01 241.562 1405.1 243.238C1406.2 244.915 1406.76 246.819 1406.76 248.951H1399.43C1399.43 247.324 1398.92 246.062 1397.89 245.167C1396.87 244.256 1395.43 243.8 1393.57 243.8C1391.78 243.8 1390.39 244.182 1389.4 244.947C1388.4 245.696 1387.91 246.689 1387.91 247.926C1387.91 249.081 1388.49 250.05 1389.64 250.831C1390.81 251.612 1392.53 252.345 1394.79 253.028C1398.96 254.282 1402 255.836 1403.9 257.691C1405.8 259.547 1406.76 261.858 1406.76 264.625C1406.76 267.701 1405.59 270.118 1403.26 271.876C1400.94 273.618 1397.8 274.488 1393.87 274.488C1391.13 274.488 1388.64 273.992 1386.39 272.999C1384.15 271.99 1382.43 270.615 1381.24 268.873C1380.07 267.132 1379.49 265.113 1379.49 262.818H1386.83C1386.83 266.741 1389.18 268.702 1393.87 268.702C1395.61 268.702 1396.97 268.352 1397.94 267.652C1398.92 266.936 1399.41 265.943 1399.41 264.674ZM1438.49 244.386H1427.61V274H1420.28V244.386H1409.54V238.453H1438.49V244.386Z" fill="#455469" fill-opacity="0.6"/>
<path d="M565.938 164.347H556.139V191H549.547V164.347H539.879V159.008H565.938V164.347ZM581.561 179.289H576.31V191H569.718V159.008H581.605C585.384 159.008 588.299 159.85 590.35 161.535C592.401 163.219 593.426 165.6 593.426 168.676C593.426 170.858 592.95 172.682 591.998 174.147C591.061 175.597 589.632 176.754 587.713 177.619L594.635 190.692V191H587.56L581.561 179.289ZM576.31 173.949H581.627C583.282 173.949 584.564 173.532 585.472 172.697C586.38 171.847 586.834 170.683 586.834 169.203C586.834 167.694 586.402 166.508 585.538 165.644C584.688 164.779 583.377 164.347 581.605 164.347H576.31V173.949ZM616.52 184.408H604.962L602.765 191H595.755L607.665 159.008H613.773L625.748 191H618.739L616.52 184.408ZM606.742 179.069H614.74L610.719 167.094L606.742 179.069ZM654.752 191H648.16L635.328 169.95V191H628.736V159.008H635.328L648.182 180.102V159.008H654.752V191ZM677.098 182.606C677.098 181.361 676.659 180.409 675.78 179.75C674.901 179.076 673.319 178.373 671.034 177.641C668.749 176.894 666.939 176.161 665.606 175.443C661.974 173.48 660.157 170.836 660.157 167.511C660.157 165.783 660.641 164.245 661.607 162.897C662.589 161.535 663.988 160.473 665.804 159.711C667.635 158.949 669.686 158.568 671.957 158.568C674.242 158.568 676.278 158.986 678.065 159.821C679.852 160.641 681.236 161.806 682.218 163.314C683.214 164.823 683.712 166.537 683.712 168.456H677.12C677.12 166.991 676.659 165.856 675.736 165.05C674.813 164.23 673.517 163.82 671.847 163.82C670.235 163.82 668.983 164.164 668.089 164.853C667.196 165.526 666.749 166.42 666.749 167.533C666.749 168.573 667.269 169.445 668.309 170.148C669.364 170.851 670.909 171.51 672.945 172.125C676.695 173.253 679.427 174.652 681.141 176.322C682.855 177.992 683.712 180.072 683.712 182.562C683.712 185.331 682.665 187.506 680.57 189.088C678.475 190.656 675.655 191.439 672.11 191.439C669.649 191.439 667.408 190.993 665.387 190.099C663.365 189.191 661.82 187.953 660.75 186.386C659.696 184.818 659.168 183.002 659.168 180.937H665.782C665.782 184.467 667.892 186.232 672.11 186.232C673.678 186.232 674.901 185.917 675.78 185.287C676.659 184.643 677.098 183.749 677.098 182.606ZM707.442 177.926H694.786V191H688.194V159.008H709.024V164.347H694.786V172.609H707.442V177.926ZM739.127 175.729C739.127 178.878 738.57 181.64 737.457 184.013C736.344 186.386 734.747 188.217 732.667 189.506C730.602 190.795 728.229 191.439 725.548 191.439C722.896 191.439 720.531 190.802 718.451 189.528C716.371 188.253 714.759 186.437 713.617 184.079C712.474 181.706 711.896 178.981 711.881 175.905V174.323C711.881 171.173 712.445 168.405 713.573 166.017C714.715 163.615 716.319 161.776 718.385 160.502C720.465 159.213 722.838 158.568 725.504 158.568C728.17 158.568 730.536 159.213 732.601 160.502C734.681 161.776 736.285 163.615 737.413 166.017C738.556 168.405 739.127 171.166 739.127 174.301V175.729ZM732.447 174.279C732.447 170.924 731.847 168.375 730.646 166.632C729.444 164.889 727.73 164.018 725.504 164.018C723.292 164.018 721.585 164.882 720.384 166.61C719.183 168.324 718.575 170.844 718.561 174.169V175.729C718.561 178.996 719.161 181.53 720.362 183.332C721.563 185.133 723.292 186.034 725.548 186.034C727.76 186.034 729.459 185.17 730.646 183.441C731.832 181.698 732.433 179.164 732.447 175.839V174.279ZM755.76 179.289H750.509V191H743.917V159.008H755.804C759.583 159.008 762.499 159.85 764.549 161.535C766.6 163.219 767.625 165.6 767.625 168.676C767.625 170.858 767.149 172.682 766.197 174.147C765.26 175.597 763.832 176.754 761.913 177.619L768.834 190.692V191H761.759L755.76 179.289ZM750.509 173.949H755.826C757.481 173.949 758.763 173.532 759.671 172.697C760.58 171.847 761.034 170.683 761.034 169.203C761.034 167.694 760.602 166.508 759.737 165.644C758.888 164.779 757.577 164.347 755.804 164.347H750.509V173.949ZM781.271 159.008L789.488 182.211L797.662 159.008H806.319V191H799.706V182.255L800.365 167.16L791.729 191H787.203L778.59 167.182L779.249 182.255V191H772.657V159.008H781.271ZM830.533 184.408H818.976L816.778 191H809.769L821.678 159.008H827.787L839.762 191H832.752L830.533 184.408ZM820.755 179.069H828.753L824.732 167.094L820.755 179.069ZM864.195 164.347H854.396V191H847.804V164.347H838.136V159.008H864.195V164.347ZM874.984 191H868.392V159.008H874.984V191ZM907.394 175.729C907.394 178.878 906.837 181.64 905.724 184.013C904.61 186.386 903.014 188.217 900.934 189.506C898.868 190.795 896.495 191.439 893.814 191.439C891.163 191.439 888.797 190.802 886.717 189.528C884.637 188.253 883.026 186.437 881.883 184.079C880.741 181.706 880.162 178.981 880.147 175.905V174.323C880.147 171.173 880.711 168.405 881.839 166.017C882.982 163.615 884.586 161.776 886.651 160.502C888.731 159.213 891.104 158.568 893.771 158.568C896.437 158.568 898.802 159.213 900.868 160.502C902.948 161.776 904.552 163.615 905.68 166.017C906.822 168.405 907.394 171.166 907.394 174.301V175.729ZM900.714 174.279C900.714 170.924 900.113 168.375 898.912 166.632C897.711 164.889 895.997 164.018 893.771 164.018C891.559 164.018 889.852 164.882 888.651 166.61C887.45 168.324 886.842 170.844 886.827 174.169V175.729C886.827 178.996 887.428 181.53 888.629 183.332C889.83 185.133 891.559 186.034 893.814 186.034C896.026 186.034 897.726 185.17 898.912 183.441C900.099 181.698 900.699 179.164 900.714 175.839V174.279ZM938.199 191H931.607L918.775 169.95V191H912.184V159.008H918.775L931.629 180.102V159.008H938.199V191Z" fill="#42B883" fill-opacity="0.8"/>
<path d="M797.54 125.08C797.401 126.992 796.693 128.498 795.416 129.596C794.146 130.695 792.47 131.244 790.386 131.244C788.108 131.244 786.313 130.479 785.003 128.949C783.701 127.411 783.05 125.303 783.05 122.626V121.54C783.05 119.831 783.351 118.325 783.953 117.023C784.555 115.721 785.414 114.724 786.529 114.032C787.652 113.332 788.954 112.982 790.435 112.982C792.486 112.982 794.138 113.532 795.391 114.63C796.644 115.729 797.369 117.271 797.564 119.257H793.902C793.812 118.109 793.491 117.279 792.938 116.767C792.392 116.246 791.558 115.985 790.435 115.985C789.214 115.985 788.299 116.425 787.688 117.304C787.086 118.174 786.777 119.529 786.761 121.369V122.711C786.761 124.632 787.05 126.036 787.627 126.923C788.213 127.81 789.133 128.253 790.386 128.253C791.517 128.253 792.36 127.997 792.913 127.484C793.475 126.964 793.796 126.162 793.877 125.08H797.54ZM814.544 122.516C814.544 124.266 814.235 125.8 813.616 127.118C812.998 128.437 812.111 129.454 810.955 130.17C809.808 130.886 808.489 131.244 807 131.244C805.527 131.244 804.213 130.89 803.057 130.182C801.902 129.474 801.006 128.465 800.372 127.155C799.737 125.836 799.415 124.323 799.407 122.614V121.735C799.407 119.985 799.721 118.447 800.347 117.121C800.982 115.786 801.873 114.765 803.021 114.057C804.176 113.34 805.494 112.982 806.976 112.982C808.457 112.982 809.771 113.34 810.918 114.057C812.074 114.765 812.965 115.786 813.592 117.121C814.227 118.447 814.544 119.981 814.544 121.723V122.516ZM810.833 121.71C810.833 119.847 810.499 118.431 809.832 117.462C809.165 116.494 808.213 116.01 806.976 116.01C805.747 116.01 804.799 116.49 804.131 117.45C803.464 118.402 803.126 119.802 803.118 121.649V122.516C803.118 124.331 803.452 125.739 804.119 126.74C804.786 127.741 805.747 128.241 807 128.241C808.229 128.241 809.173 127.761 809.832 126.801C810.491 125.832 810.825 124.424 810.833 122.577V121.71ZM831.658 131H827.996L820.867 119.306V131H817.205V113.227H820.867L828.008 124.945V113.227H831.658V131ZM849.31 131H845.647L838.519 119.306V131H834.856V113.227H838.519L845.66 124.945V113.227H849.31V131ZM863.201 123.297H856.17V128.058H864.422V131H852.508V113.227H864.397V116.193H856.17V120.429H863.201V123.297ZM880.523 125.08C880.385 126.992 879.677 128.498 878.399 129.596C877.129 130.695 875.453 131.244 873.37 131.244C871.091 131.244 869.297 130.479 867.986 128.949C866.684 127.411 866.033 125.303 866.033 122.626V121.54C866.033 119.831 866.334 118.325 866.937 117.023C867.539 115.721 868.397 114.724 869.512 114.032C870.635 113.332 871.937 112.982 873.418 112.982C875.469 112.982 877.121 113.532 878.375 114.63C879.628 115.729 880.352 117.271 880.547 119.257H876.885C876.796 118.109 876.474 117.279 875.921 116.767C875.376 116.246 874.542 115.985 873.418 115.985C872.198 115.985 871.282 116.425 870.672 117.304C870.07 118.174 869.76 119.529 869.744 121.369V122.711C869.744 124.632 870.033 126.036 870.611 126.923C871.197 127.81 872.116 128.253 873.37 128.253C874.501 128.253 875.343 127.997 875.896 127.484C876.458 126.964 876.779 126.162 876.861 125.08H880.523ZM895.94 116.193H890.496V131H886.834V116.193H881.463V113.227H895.94V116.193ZM901.934 131H898.272V113.227H901.934V131ZM919.939 122.516C919.939 124.266 919.63 125.8 919.012 127.118C918.393 128.437 917.506 129.454 916.351 130.17C915.203 130.886 913.885 131.244 912.396 131.244C910.923 131.244 909.608 130.89 908.453 130.182C907.297 129.474 906.402 128.465 905.767 127.155C905.132 125.836 904.811 124.323 904.803 122.614V121.735C904.803 119.985 905.116 118.447 905.743 117.121C906.377 115.786 907.269 114.765 908.416 114.057C909.572 113.34 910.89 112.982 912.371 112.982C913.852 112.982 915.167 113.34 916.314 114.057C917.47 114.765 918.361 115.786 918.987 117.121C919.622 118.447 919.939 119.981 919.939 121.723V122.516ZM916.229 121.71C916.229 119.847 915.895 118.431 915.228 117.462C914.56 116.494 913.608 116.01 912.371 116.01C911.142 116.01 910.194 116.49 909.527 117.45C908.86 118.402 908.522 119.802 908.514 121.649V122.516C908.514 124.331 908.847 125.739 909.515 126.74C910.182 127.741 911.142 128.241 912.396 128.241C913.624 128.241 914.568 127.761 915.228 126.801C915.887 125.832 916.22 124.424 916.229 122.577V121.71ZM937.054 131H933.392L926.263 119.306V131H922.601V113.227H926.263L933.404 124.945V113.227H937.054V131ZM949.468 126.337C949.468 125.645 949.224 125.116 948.736 124.75C948.248 124.376 947.369 123.985 946.099 123.578C944.83 123.163 943.825 122.756 943.084 122.357C941.066 121.267 940.057 119.798 940.057 117.951C940.057 116.99 940.325 116.136 940.862 115.387C941.408 114.63 942.185 114.04 943.194 113.617C944.211 113.194 945.35 112.982 946.612 112.982C947.881 112.982 949.013 113.214 950.005 113.678C950.998 114.134 951.767 114.781 952.312 115.619C952.866 116.457 953.143 117.41 953.143 118.476H949.48C949.48 117.662 949.224 117.031 948.711 116.583C948.199 116.128 947.479 115.9 946.551 115.9C945.656 115.9 944.96 116.091 944.463 116.474C943.967 116.848 943.719 117.344 943.719 117.963C943.719 118.541 944.008 119.025 944.585 119.416C945.171 119.806 946.03 120.172 947.161 120.514C949.244 121.141 950.762 121.918 951.714 122.846C952.667 123.773 953.143 124.929 953.143 126.312C953.143 127.851 952.561 129.059 951.397 129.938C950.233 130.809 948.667 131.244 946.697 131.244C945.33 131.244 944.085 130.996 942.962 130.5C941.839 129.995 940.98 129.307 940.386 128.437C939.8 127.566 939.507 126.557 939.507 125.409H943.182C943.182 127.37 944.354 128.351 946.697 128.351C947.568 128.351 948.248 128.176 948.736 127.826C949.224 127.468 949.468 126.972 949.468 126.337Z" fill="#475D7D"/>
<path d="M903.77 352H897.91V323.562H903.77V352ZM909.219 352V323.562H917.969C920.469 323.562 922.702 324.129 924.668 325.262C926.647 326.382 928.19 327.983 929.297 330.066C930.404 332.137 930.957 334.493 930.957 337.137V338.445C930.957 341.089 930.41 343.439 929.316 345.496C928.236 347.553 926.706 349.148 924.727 350.281C922.747 351.414 920.514 351.987 918.027 352H909.219ZM915.078 328.309V347.293H917.91C920.202 347.293 921.953 346.544 923.164 345.047C924.375 343.549 924.993 341.408 925.02 338.621V337.117C925.02 334.227 924.421 332.039 923.223 330.555C922.025 329.057 920.273 328.309 917.969 328.309H915.078ZM952.344 339.676H941.094V347.293H954.297V352H935.234V323.562H954.258V328.309H941.094V335.086H952.344V339.676ZM973.789 346.141H963.516L961.562 352H955.332L965.918 323.562H971.348L981.992 352H975.762L973.789 346.141ZM965.098 341.395H972.207L968.633 330.75L965.098 341.395ZM999.395 344.539C999.395 343.432 999.004 342.586 998.223 342C997.441 341.401 996.035 340.776 994.004 340.125C991.973 339.461 990.365 338.81 989.18 338.172C985.951 336.427 984.336 334.077 984.336 331.121C984.336 329.585 984.766 328.217 985.625 327.02C986.497 325.809 987.741 324.865 989.355 324.188C990.983 323.51 992.806 323.172 994.824 323.172C996.855 323.172 998.665 323.543 1000.25 324.285C1001.84 325.014 1003.07 326.049 1003.95 327.391C1004.83 328.732 1005.27 330.255 1005.27 331.961H999.414C999.414 330.659 999.004 329.65 998.184 328.934C997.363 328.204 996.211 327.84 994.727 327.84C993.294 327.84 992.181 328.146 991.387 328.758C990.592 329.357 990.195 330.151 990.195 331.141C990.195 332.065 990.658 332.84 991.582 333.465C992.52 334.09 993.893 334.676 995.703 335.223C999.036 336.225 1001.46 337.469 1002.99 338.953C1004.51 340.438 1005.27 342.286 1005.27 344.5C1005.27 346.961 1004.34 348.895 1002.48 350.301C1000.62 351.694 998.112 352.391 994.961 352.391C992.773 352.391 990.781 351.993 988.984 351.199C987.188 350.392 985.814 349.292 984.863 347.898C983.926 346.505 983.457 344.891 983.457 343.055H989.336C989.336 346.193 991.211 347.762 994.961 347.762C996.354 347.762 997.441 347.482 998.223 346.922C999.004 346.349 999.395 345.555 999.395 344.539Z" fill="#455469" fill-opacity="0.6"/>
<path d="M911.347 431H901.093V381.234H911.347V431ZM961.352 431H951.098L931.137 398.256V431H920.883V381.234H931.137L951.132 414.047V381.234H961.352V431ZM1010.78 431H1000.52L980.561 398.256V431H970.307V381.234H980.561L1000.56 414.047V381.234H1010.78V431ZM1060.61 407.245C1060.61 412.144 1059.74 416.439 1058.01 420.131C1056.28 423.822 1053.8 426.671 1050.56 428.676C1047.35 430.681 1043.66 431.684 1039.49 431.684C1035.36 431.684 1031.68 430.692 1028.45 428.71C1025.21 426.728 1022.7 423.902 1020.93 420.233C1019.15 416.542 1018.25 412.304 1018.23 407.519V405.058C1018.23 400.159 1019.1 395.852 1020.86 392.138C1022.64 388.401 1025.13 385.541 1028.34 383.559C1031.58 381.553 1035.27 380.551 1039.42 380.551C1043.57 380.551 1047.25 381.553 1050.46 383.559C1053.69 385.541 1056.19 388.401 1057.94 392.138C1059.72 395.852 1060.61 400.147 1060.61 405.023V407.245ZM1050.22 404.989C1050.22 399.771 1049.28 395.806 1047.42 393.095C1045.55 390.383 1042.88 389.027 1039.42 389.027C1035.98 389.027 1033.32 390.372 1031.45 393.061C1029.59 395.727 1028.64 399.646 1028.62 404.818V407.245C1028.62 412.326 1029.55 416.269 1031.42 419.071C1033.29 421.874 1035.98 423.275 1039.49 423.275C1042.93 423.275 1045.57 421.931 1047.42 419.242C1049.26 416.531 1050.2 412.589 1050.22 407.416V404.989ZM1085.7 418.661L1096.98 381.234H1108.39L1091.06 431H1080.37L1063.1 381.234H1074.49L1085.7 418.661ZM1138.61 420.746H1120.63L1117.21 431H1106.31L1124.83 381.234H1134.33L1152.96 431H1142.06L1138.61 420.746ZM1123.4 412.44H1135.84L1129.58 393.812L1123.4 412.44ZM1190.97 389.54H1175.73V431H1165.47V389.54H1150.43V381.234H1190.97V389.54ZM1207.75 431H1197.5V381.234H1207.75V431ZM1258.17 407.245C1258.17 412.144 1257.3 416.439 1255.57 420.131C1253.84 423.822 1251.35 426.671 1248.12 428.676C1244.91 430.681 1241.21 431.684 1237.04 431.684C1232.92 431.684 1229.24 430.692 1226 428.71C1222.77 426.728 1220.26 423.902 1218.49 420.233C1216.71 416.542 1215.81 412.304 1215.79 407.519V405.058C1215.79 400.159 1216.66 395.852 1218.42 392.138C1220.19 388.401 1222.69 385.541 1225.9 383.559C1229.14 381.553 1232.83 380.551 1236.98 380.551C1241.12 380.551 1244.8 381.553 1248.02 383.559C1251.25 385.541 1253.75 388.401 1255.5 392.138C1257.28 395.852 1258.17 400.147 1258.17 405.023V407.245ZM1247.78 404.989C1247.78 399.771 1246.84 395.806 1244.97 393.095C1243.11 390.383 1240.44 389.027 1236.98 389.027C1233.54 389.027 1230.88 390.372 1229.01 393.061C1227.14 395.727 1226.2 399.646 1226.18 404.818V407.245C1226.18 412.326 1227.11 416.269 1228.98 419.071C1230.85 421.874 1233.54 423.275 1237.04 423.275C1240.49 423.275 1243.13 421.931 1244.97 419.242C1246.82 416.531 1247.75 412.589 1247.78 407.416V404.989ZM1306.09 431H1295.83L1275.87 398.256V431H1265.62V381.234H1275.87L1295.87 414.047V381.234H1306.09V431Z" fill="#455469" fill-opacity="0.6"/>
<path d="M919.125 476.472C919.125 475.503 918.783 474.763 918.099 474.25C917.416 473.726 916.185 473.179 914.408 472.609C912.63 472.028 911.223 471.459 910.187 470.9C907.361 469.374 905.948 467.317 905.948 464.731C905.948 463.387 906.324 462.19 907.076 461.142C907.84 460.083 908.928 459.257 910.34 458.664C911.764 458.072 913.36 457.775 915.125 457.775C916.903 457.775 918.486 458.1 919.876 458.75C921.266 459.388 922.343 460.293 923.106 461.467C923.881 462.64 924.269 463.973 924.269 465.466H919.142C919.142 464.326 918.783 463.444 918.065 462.817C917.347 462.179 916.339 461.86 915.04 461.86C913.787 461.86 912.813 462.128 912.118 462.663C911.423 463.187 911.075 463.882 911.075 464.748C911.075 465.557 911.48 466.235 912.289 466.782C913.109 467.329 914.311 467.841 915.895 468.32C918.811 469.197 920.936 470.285 922.269 471.584C923.602 472.883 924.269 474.501 924.269 476.438C924.269 478.591 923.454 480.283 921.825 481.513C920.195 482.732 918.002 483.342 915.245 483.342C913.331 483.342 911.588 482.994 910.016 482.299C908.443 481.593 907.241 480.63 906.41 479.411C905.589 478.192 905.179 476.779 905.179 475.173H910.323C910.323 477.919 911.964 479.292 915.245 479.292C916.464 479.292 917.416 479.047 918.099 478.557C918.783 478.055 919.125 477.36 919.125 476.472ZM948.194 471.123C948.194 473.572 947.761 475.72 946.896 477.565C946.03 479.411 944.788 480.835 943.17 481.838C941.563 482.84 939.718 483.342 937.633 483.342C935.571 483.342 933.731 482.846 932.113 481.855C930.495 480.864 929.242 479.451 928.353 477.617C927.464 475.771 927.014 473.652 927.003 471.259V470.029C927.003 467.579 927.442 465.426 928.319 463.569C929.208 461.7 930.455 460.271 932.062 459.279C933.679 458.277 935.525 457.775 937.599 457.775C939.672 457.775 941.512 458.277 943.119 459.279C944.736 460.271 945.984 461.7 946.861 463.569C947.75 465.426 948.194 467.574 948.194 470.012V471.123ZM942.999 469.995C942.999 467.386 942.532 465.403 941.598 464.047C940.663 462.692 939.33 462.014 937.599 462.014C935.878 462.014 934.551 462.686 933.617 464.03C932.682 465.363 932.21 467.323 932.198 469.909V471.123C932.198 473.663 932.665 475.634 933.6 477.036C934.534 478.437 935.878 479.138 937.633 479.138C939.353 479.138 940.675 478.465 941.598 477.121C942.521 475.765 942.988 473.794 942.999 471.208V469.995ZM957.047 478.881H967.933V483H951.92V458.117H957.047V478.881ZM989.312 458.117V474.506C989.312 477.229 988.458 479.383 986.749 480.966C985.051 482.55 982.727 483.342 979.776 483.342C976.871 483.342 974.564 482.573 972.855 481.035C971.146 479.497 970.274 477.383 970.24 474.694V458.117H975.367V474.541C975.367 476.17 975.755 477.36 976.529 478.112C977.315 478.853 978.398 479.223 979.776 479.223C982.659 479.223 984.123 477.708 984.168 474.677V458.117H989.312ZM1012.25 462.27H1004.62V483H999.498V462.27H991.979V458.117H1012.25V462.27ZM1020.64 483H1015.51V458.117H1020.64V483ZM1045.85 471.123C1045.85 473.572 1045.41 475.72 1044.55 477.565C1043.68 479.411 1042.44 480.835 1040.82 481.838C1039.21 482.84 1037.37 483.342 1035.28 483.342C1033.22 483.342 1031.38 482.846 1029.76 481.855C1028.15 480.864 1026.89 479.451 1026 477.617C1025.12 475.771 1024.67 473.652 1024.65 471.259V470.029C1024.65 467.579 1025.09 465.426 1025.97 463.569C1026.86 461.7 1028.11 460.271 1029.71 459.279C1031.33 458.277 1033.18 457.775 1035.25 457.775C1037.32 457.775 1039.16 458.277 1040.77 459.279C1042.39 460.271 1043.64 461.7 1044.51 463.569C1045.4 465.426 1045.85 467.574 1045.85 470.012V471.123ZM1040.65 469.995C1040.65 467.386 1040.18 465.403 1039.25 464.047C1038.31 462.692 1036.98 462.014 1035.25 462.014C1033.53 462.014 1032.2 462.686 1031.27 464.03C1030.33 465.363 1029.86 467.323 1029.85 469.909V471.123C1029.85 473.663 1030.32 475.634 1031.25 477.036C1032.19 478.437 1033.53 479.138 1035.28 479.138C1037 479.138 1038.33 478.465 1039.25 477.121C1040.17 475.765 1040.64 473.794 1040.65 471.208V469.995ZM1069.81 483H1064.68L1054.7 466.628V483H1049.57V458.117H1054.7L1064.7 474.523V458.117H1069.81V483ZM1087.19 476.472C1087.19 475.503 1086.84 474.763 1086.16 474.25C1085.48 473.726 1084.25 473.179 1082.47 472.609C1080.69 472.028 1079.28 471.459 1078.25 470.9C1075.42 469.374 1074.01 467.317 1074.01 464.731C1074.01 463.387 1074.39 462.19 1075.14 461.142C1075.9 460.083 1076.99 459.257 1078.4 458.664C1079.83 458.072 1081.42 457.775 1083.19 457.775C1084.96 457.775 1086.55 458.1 1087.94 458.75C1089.33 459.388 1090.4 460.293 1091.17 461.467C1091.94 462.64 1092.33 463.973 1092.33 465.466H1087.2C1087.2 464.326 1086.84 463.444 1086.13 462.817C1085.41 462.179 1084.4 461.86 1083.1 461.86C1081.85 461.86 1080.87 462.128 1080.18 462.663C1079.48 463.187 1079.14 463.882 1079.14 464.748C1079.14 465.557 1079.54 466.235 1080.35 466.782C1081.17 467.329 1082.37 467.841 1083.96 468.32C1086.87 469.197 1089 470.285 1090.33 471.584C1091.66 472.883 1092.33 474.501 1092.33 476.438C1092.33 478.591 1091.52 480.283 1089.89 481.513C1088.26 482.732 1086.06 483.342 1083.31 483.342C1081.39 483.342 1079.65 482.994 1078.08 482.299C1076.5 481.593 1075.3 480.63 1074.47 479.411C1073.65 478.192 1073.24 476.779 1073.24 475.173H1078.38C1078.38 477.919 1080.03 479.292 1083.31 479.292C1084.53 479.292 1085.48 479.047 1086.16 478.557C1086.84 478.055 1087.19 477.36 1087.19 476.472Z" fill="#455469" fill-opacity="0.6"/>
<path d="M1024.49 360V320.898H1036.52C1039.96 320.898 1043.03 321.677 1045.73 323.235C1048.46 324.775 1050.58 326.977 1052.1 329.841C1053.62 332.688 1054.38 335.929 1054.38 339.563V341.362C1054.38 344.997 1053.63 348.228 1052.13 351.057C1050.64 353.886 1048.54 356.079 1045.81 357.637C1043.09 359.194 1040.02 359.982 1036.6 360H1024.49ZM1032.55 327.424V353.528H1036.44C1039.59 353.528 1042 352.498 1043.67 350.439C1045.33 348.381 1046.18 345.435 1046.22 341.604V339.536C1046.22 335.562 1045.39 332.554 1043.75 330.513C1042.1 328.454 1039.69 327.424 1036.52 327.424H1032.55ZM1068.83 360H1060.77V320.898H1068.83V360ZM1090.77 350.305L1099.63 320.898H1108.6L1094.99 360H1086.58L1073.02 320.898H1081.96L1090.77 350.305ZM1135.83 343.054H1120.37V353.528H1138.52V360H1112.31V320.898H1138.47V327.424H1120.37V336.743H1135.83V343.054ZM1157.72 345.686H1151.3V360H1143.25V320.898H1157.77C1162.39 320.898 1165.96 321.928 1168.46 323.987C1170.97 326.046 1172.22 328.955 1172.22 332.715C1172.22 335.382 1171.64 337.611 1170.48 339.402C1169.33 341.174 1167.59 342.589 1165.24 343.645L1173.7 359.624V360H1165.05L1157.72 345.686ZM1151.3 339.16H1157.8C1159.82 339.16 1161.39 338.65 1162.5 337.629C1163.61 336.591 1164.17 335.168 1164.17 333.359C1164.17 331.515 1163.64 330.065 1162.58 329.009C1161.54 327.952 1159.94 327.424 1157.77 327.424H1151.3V339.16ZM1198.65 349.741C1198.65 348.219 1198.11 347.056 1197.04 346.25C1195.96 345.426 1194.03 344.567 1191.24 343.672C1188.44 342.759 1186.23 341.864 1184.6 340.986C1180.16 338.587 1177.94 335.356 1177.94 331.292C1177.94 329.179 1178.53 327.299 1179.72 325.652C1180.92 323.987 1182.63 322.689 1184.85 321.758C1187.08 320.827 1189.59 320.361 1192.36 320.361C1195.16 320.361 1197.65 320.872 1199.83 321.892C1202.01 322.895 1203.71 324.318 1204.91 326.162C1206.12 328.006 1206.73 330.101 1206.73 332.446H1198.68C1198.68 330.656 1198.11 329.268 1196.98 328.284C1195.86 327.281 1194.27 326.78 1192.23 326.78C1190.26 326.78 1188.73 327.201 1187.64 328.042C1186.55 328.866 1186 329.958 1186 331.318C1186 332.59 1186.64 333.655 1187.91 334.514C1189.2 335.374 1191.08 336.179 1193.57 336.931C1198.16 338.31 1201.5 340.02 1203.59 342.061C1205.69 344.102 1206.73 346.644 1206.73 349.688C1206.73 353.071 1205.45 355.73 1202.89 357.664C1200.33 359.579 1196.89 360.537 1192.55 360.537C1189.54 360.537 1186.81 359.991 1184.33 358.899C1181.86 357.789 1179.98 356.276 1178.67 354.36C1177.38 352.445 1176.73 350.225 1176.73 347.7H1184.82C1184.82 352.015 1187.4 354.172 1192.55 354.172C1194.47 354.172 1195.96 353.787 1197.04 353.018C1198.11 352.23 1198.65 351.138 1198.65 349.741ZM1220.78 360H1212.72V320.898H1220.78V360ZM1256.9 327.424H1244.92V360H1236.86V327.424H1225.05V320.898H1256.9V327.424ZM1275.43 338.516L1283.57 320.898H1292.37L1279.54 345.82V360H1271.35V345.82L1258.51 320.898H1267.35L1275.43 338.516Z" fill="#637083" fill-opacity="0.6"/>
<path d="M619.299 356.508C617.98 358.087 616.117 359.315 613.708 360.194C611.299 361.057 608.63 361.488 605.7 361.488C602.624 361.488 599.922 360.821 597.595 359.486C595.284 358.135 593.493 356.182 592.224 353.627C590.97 351.072 590.327 348.069 590.295 344.618V342.201C590.295 338.653 590.889 335.585 592.077 332.997C593.282 330.393 595.007 328.407 597.253 327.04C599.515 325.657 602.16 324.965 605.188 324.965C609.403 324.965 612.699 325.974 615.075 327.992C617.451 329.994 618.859 332.916 619.299 336.757H612.17C611.844 334.722 611.12 333.233 609.997 332.289C608.89 331.345 607.36 330.873 605.407 330.873C602.917 330.873 601.021 331.809 599.719 333.681C598.417 335.552 597.757 338.336 597.741 342.03V344.301C597.741 348.028 598.449 350.844 599.865 352.748C601.281 354.652 603.356 355.604 606.091 355.604C608.841 355.604 610.803 355.019 611.975 353.847V347.719H605.31V342.323H619.299V356.508ZM638.415 347.987H632.58V361H625.256V325.453H638.464C642.663 325.453 645.902 326.389 648.181 328.261C650.459 330.132 651.599 332.777 651.599 336.195C651.599 338.62 651.07 340.647 650.012 342.274C648.97 343.886 647.383 345.172 645.251 346.132L652.941 360.658V361H645.08L638.415 347.987ZM632.58 342.055H638.488C640.327 342.055 641.752 341.591 642.761 340.663C643.77 339.719 644.274 338.425 644.274 336.781C644.274 335.105 643.794 333.786 642.834 332.826C641.89 331.866 640.433 331.386 638.464 331.386H632.58V342.055ZM686.389 344.032C686.389 347.532 685.77 350.6 684.533 353.236C683.296 355.873 681.522 357.908 679.211 359.34C676.916 360.772 674.279 361.488 671.301 361.488C668.355 361.488 665.726 360.78 663.415 359.364C661.104 357.948 659.313 355.93 658.044 353.31C656.774 350.673 656.132 347.646 656.115 344.228V342.47C656.115 338.97 656.742 335.894 657.995 333.241C659.265 330.572 661.047 328.529 663.342 327.113C665.653 325.681 668.29 324.965 671.252 324.965C674.214 324.965 676.843 325.681 679.138 327.113C681.449 328.529 683.231 330.572 684.484 333.241C685.754 335.894 686.389 338.962 686.389 342.445V344.032ZM678.967 342.421C678.967 338.694 678.299 335.862 676.965 333.925C675.63 331.988 673.726 331.02 671.252 331.02C668.794 331.02 666.898 331.98 665.563 333.9C664.229 335.805 663.553 338.604 663.537 342.299V344.032C663.537 347.662 664.204 350.478 665.539 352.479C666.874 354.481 668.794 355.482 671.301 355.482C673.758 355.482 675.646 354.522 676.965 352.602C678.283 350.665 678.951 347.849 678.967 344.154V342.421ZM719.396 350.746L724.182 325.453H731.481L723.596 361H716.223L710.437 337.221L704.65 361H697.277L689.392 325.453H696.691L701.501 350.697L707.36 325.453H713.562L719.396 350.746ZM762.561 331.386H751.672V361H744.348V331.386H733.605V325.453H762.561V331.386ZM795.69 361H788.366V345.766H774.084V361H766.76V325.453H774.084V339.857H788.366V325.453H795.69V361Z" fill="#455469" fill-opacity="0.7"/>
<path d="M389.577 355H385.183V333.672H389.577V355ZM411.008 355H406.613L398.059 340.967V355H393.664V333.672H398.059L406.628 347.734V333.672H411.008V355ZM422.727 349.712L427.561 333.672H432.453L425.026 355H420.441L413.044 333.672H417.922L422.727 349.712ZM447.307 345.757H438.869V351.47H448.771V355H434.475V333.672H448.742V337.231H438.869V342.314H447.307V345.757ZM462.409 349.404C462.409 348.574 462.116 347.939 461.53 347.5C460.944 347.051 459.89 346.582 458.366 346.094C456.843 345.596 455.637 345.107 454.748 344.629C452.326 343.32 451.115 341.558 451.115 339.341C451.115 338.188 451.438 337.163 452.082 336.265C452.736 335.356 453.669 334.648 454.88 334.141C456.101 333.633 457.468 333.379 458.981 333.379C460.505 333.379 461.862 333.657 463.054 334.214C464.245 334.761 465.168 335.537 465.822 336.543C466.486 337.549 466.818 338.691 466.818 339.971H462.424C462.424 338.994 462.116 338.237 461.501 337.7C460.886 337.153 460.021 336.88 458.908 336.88C457.834 336.88 456.999 337.109 456.403 337.568C455.808 338.018 455.51 338.613 455.51 339.355C455.51 340.049 455.856 340.63 456.55 341.099C457.253 341.567 458.283 342.007 459.641 342.417C462.141 343.169 463.962 344.102 465.104 345.215C466.247 346.328 466.818 347.715 466.818 349.375C466.818 351.221 466.12 352.671 464.724 353.726C463.327 354.771 461.447 355.293 459.084 355.293C457.443 355.293 455.949 354.995 454.602 354.399C453.254 353.794 452.224 352.969 451.511 351.924C450.808 350.879 450.456 349.668 450.456 348.291H454.865C454.865 350.645 456.271 351.821 459.084 351.821C460.129 351.821 460.944 351.611 461.53 351.191C462.116 350.762 462.409 350.166 462.409 349.404ZM485.861 337.231H479.328V355H474.934V337.231H468.488V333.672H485.861V337.231ZM494.123 333.672L499.602 349.141L505.051 333.672H510.822V355H506.413V349.17L506.853 339.106L501.096 355H498.078L492.336 339.121L492.775 349.17V355H488.381V333.672H494.123ZM527.492 345.757H519.055V351.47H528.957V355H514.66V333.672H528.928V337.231H519.055V342.314H527.492V345.757ZM548.879 355H544.484L535.93 340.967V355H531.535V333.672H535.93L544.499 347.734V333.672H548.879V355ZM568.332 337.231H561.799V355H557.404V337.231H550.959V333.672H568.332V337.231Z" fill="#455469" fill-opacity="0.8"/>
<path d="M856.687 469.191L829.953 461.135V452.98L865.5 465.358V473L829.953 485.329V477.199L856.687 469.191ZM865.5 441.823V449.147H829.953V441.823H865.5ZM856.174 416.579C854.79 416.579 853.732 417.067 853 418.044C852.251 419.021 851.47 420.778 850.656 423.317C849.826 425.856 849.012 427.867 848.215 429.348C846.034 433.384 843.096 435.402 839.401 435.402C837.481 435.402 835.772 434.865 834.274 433.791C832.761 432.701 831.581 431.146 830.734 429.128C829.888 427.093 829.465 424.815 829.465 422.292C829.465 419.753 829.929 417.491 830.856 415.505C831.768 413.519 833.062 411.981 834.738 410.891C836.415 409.784 838.319 409.23 840.451 409.23V416.555C838.824 416.555 837.562 417.067 836.667 418.093C835.756 419.118 835.3 420.559 835.3 422.414C835.3 424.204 835.682 425.596 836.447 426.589C837.196 427.582 838.189 428.078 839.426 428.078C840.581 428.078 841.55 427.5 842.331 426.345C843.112 425.173 843.845 423.456 844.528 421.193C845.782 417.027 847.336 413.991 849.191 412.087C851.047 410.183 853.358 409.23 856.125 409.23C859.201 409.23 861.618 410.394 863.376 412.722C865.118 415.049 865.988 418.182 865.988 422.121C865.988 424.855 865.492 427.346 864.499 429.592C863.49 431.838 862.115 433.555 860.373 434.743C858.632 435.915 856.613 436.501 854.318 436.501V429.152C858.241 429.152 860.202 426.809 860.202 422.121C860.202 420.38 859.852 419.021 859.152 418.044C858.436 417.067 857.443 416.579 856.174 416.579ZM865.5 396.462V403.786H829.953V396.462H865.5ZM848.532 360.451C852.032 360.451 855.1 361.07 857.736 362.307C860.373 363.544 862.408 365.318 863.84 367.629C865.272 369.924 865.988 372.561 865.988 375.539C865.988 378.485 865.28 381.114 863.864 383.425C862.448 385.736 860.43 387.526 857.81 388.796C855.173 390.065 852.146 390.708 848.728 390.725H846.97C843.47 390.725 840.394 390.098 837.741 388.845C835.072 387.575 833.029 385.793 831.613 383.498C830.181 381.187 829.465 378.55 829.465 375.588C829.465 372.626 830.181 369.997 831.613 367.702C833.029 365.391 835.072 363.609 837.741 362.355C840.394 361.086 843.462 360.451 846.945 360.451H848.532ZM846.921 367.873C843.194 367.873 840.362 368.54 838.425 369.875C836.488 371.21 835.52 373.114 835.52 375.588C835.52 378.046 836.48 379.942 838.4 381.276C840.305 382.611 843.104 383.286 846.799 383.303H848.532C852.162 383.303 854.978 382.635 856.979 381.301C858.981 379.966 859.982 378.046 859.982 375.539C859.982 373.081 859.022 371.193 857.102 369.875C855.165 368.557 852.349 367.889 848.654 367.873H846.921ZM865.5 326.223V333.547L842.111 347.805H865.5V355.129H829.953V347.805L853.391 333.522H829.953V326.223H865.5Z" fill="#394556" fill-opacity="0.5"/>
<path d="M794.212 479.715L778.172 474.881V469.988L799.5 477.415V482L778.172 489.397V484.52L794.212 479.715ZM795.105 457.039V464.744L799.5 466.209V470.882L778.172 462.942V458.87L799.5 450.887V455.56L795.105 457.039ZM791.546 463.558V458.226L783.562 460.906L791.546 463.558ZM795.97 444.5V435.169H799.5V448.895H778.172V444.5H795.97ZM778.172 416.844H792.22C794.554 416.844 796.399 417.576 797.757 419.041C799.114 420.496 799.793 422.488 799.793 425.018C799.793 427.508 799.134 429.485 797.815 430.95C796.497 432.415 794.686 433.162 792.381 433.191H778.172V428.797H792.249C793.646 428.797 794.666 428.465 795.311 427.801C795.945 427.127 796.263 426.199 796.263 425.018C796.263 422.547 794.964 421.292 792.366 421.253H778.172V416.844ZM790.257 400.408V408.846H795.97V398.943H799.5V413.24H778.172V398.973H781.731V408.846H786.814V400.408H790.257Z" fill="#455469" fill-opacity="0.3"/>
<path d="M344.904 397.54H329.66V439H319.406V397.54H304.367V389.234H344.904V397.54ZM380.725 417.433H361.037V430.763H384.143V439H350.783V389.234H384.074V397.54H361.037V409.4H380.725V417.433ZM429.226 422.423C428.838 427.778 426.856 431.993 423.278 435.069C419.724 438.146 415.03 439.684 409.196 439.684C402.816 439.684 397.792 437.542 394.123 433.258C390.477 428.951 388.654 423.049 388.654 415.553V412.511C388.654 407.726 389.497 403.51 391.184 399.864C392.87 396.218 395.274 393.427 398.396 391.49C401.54 389.531 405.186 388.551 409.333 388.551C415.075 388.551 419.701 390.089 423.21 393.165C426.719 396.241 428.747 400.559 429.294 406.119H419.04C418.789 402.906 417.889 400.582 416.34 399.146C414.813 397.688 412.478 396.959 409.333 396.959C405.915 396.959 403.352 398.189 401.643 400.65C399.956 403.089 399.09 406.882 399.045 412.032V415.792C399.045 421.17 399.854 425.1 401.472 427.584C403.112 430.068 405.687 431.31 409.196 431.31C412.364 431.31 414.722 430.592 416.271 429.156C417.844 427.698 418.744 425.453 418.972 422.423H429.226ZM476.462 439H466.208V417.672H446.213V439H435.959V389.234H446.213V409.4H466.208V389.234H476.462V439ZM525.92 439H515.666L495.705 406.256V439H485.451V389.234H495.705L515.7 422.047V389.234H525.92V439ZM575.754 415.245C575.754 420.144 574.888 424.439 573.156 428.131C571.424 431.822 568.941 434.671 565.705 436.676C562.492 438.681 558.801 439.684 554.631 439.684C550.507 439.684 546.826 438.692 543.591 436.71C540.355 434.728 537.849 431.902 536.071 428.233C534.294 424.542 533.394 420.304 533.371 415.519V413.058C533.371 408.159 534.248 403.852 536.003 400.138C537.78 396.401 540.275 393.541 543.488 391.559C546.724 389.553 550.415 388.551 554.562 388.551C558.71 388.551 562.39 389.553 565.603 391.559C568.838 393.541 571.333 396.401 573.088 400.138C574.865 403.852 575.754 408.147 575.754 413.023V415.245ZM565.363 412.989C565.363 407.771 564.429 403.806 562.561 401.095C560.692 398.383 558.026 397.027 554.562 397.027C551.122 397.027 548.467 398.372 546.599 401.061C544.73 403.727 543.785 407.646 543.762 412.818V415.245C543.762 420.326 544.696 424.269 546.564 427.071C548.433 429.874 551.122 431.275 554.631 431.275C558.072 431.275 560.715 429.931 562.561 427.242C564.406 424.531 565.34 420.589 565.363 415.416V412.989ZM593.459 430.763H615.231V439H583.205V389.234H593.459V430.763ZM659.836 415.245C659.836 420.144 658.97 424.439 657.238 428.131C655.507 431.822 653.023 434.671 649.787 436.676C646.574 438.681 642.883 439.684 638.713 439.684C634.589 439.684 630.909 438.692 627.673 436.71C624.437 434.728 621.931 431.902 620.153 428.233C618.376 424.542 617.476 420.304 617.453 415.519V413.058C617.453 408.159 618.33 403.852 620.085 400.138C621.862 396.401 624.357 393.541 627.57 391.559C630.806 389.553 634.497 388.551 638.645 388.551C642.792 388.551 646.472 389.553 649.685 391.559C652.92 393.541 655.415 396.401 657.17 400.138C658.947 403.852 659.836 408.147 659.836 413.023V415.245ZM649.445 412.989C649.445 407.771 648.511 403.806 646.643 401.095C644.774 398.383 642.108 397.027 638.645 397.027C635.204 397.027 632.549 398.372 630.681 401.061C628.812 403.727 627.867 407.646 627.844 412.818V415.245C627.844 420.326 628.778 424.269 630.646 427.071C632.515 429.874 635.204 431.275 638.713 431.275C642.154 431.275 644.797 429.931 646.643 427.242C648.488 424.531 649.423 420.589 649.445 415.416V412.989ZM706.662 432.711C704.816 434.921 702.207 436.642 698.835 437.872C695.463 439.08 691.726 439.684 687.624 439.684C683.317 439.684 679.535 438.749 676.276 436.881C673.041 434.99 670.534 432.255 668.757 428.678C667.002 425.1 666.102 420.896 666.057 416.065V412.682C666.057 407.714 666.888 403.419 668.552 399.796C670.238 396.15 672.653 393.37 675.798 391.456C678.965 389.519 682.668 388.551 686.906 388.551C692.808 388.551 697.422 389.964 700.749 392.789C704.076 395.592 706.047 399.682 706.662 405.06H696.682C696.226 402.211 695.212 400.126 693.64 398.805C692.09 397.483 689.948 396.822 687.214 396.822C683.728 396.822 681.073 398.132 679.25 400.753C677.427 403.373 676.504 407.27 676.481 412.442V415.621C676.481 420.839 677.473 424.781 679.455 427.447C681.438 430.113 684.343 431.446 688.171 431.446C692.022 431.446 694.768 430.626 696.408 428.985V420.406H687.077V412.853H706.662V432.711ZM732.16 411.656L742.517 389.234H753.728L737.39 420.953V439H726.965V420.953L710.627 389.234H721.872L732.16 411.656Z" fill="#687281" fill-opacity="0.6"/>
<path d="M622.964 483.404C622.964 482.574 622.671 481.939 622.085 481.5C621.499 481.051 620.444 480.582 618.921 480.094C617.397 479.596 616.191 479.107 615.303 478.629C612.881 477.32 611.67 475.558 611.67 473.341C611.67 472.188 611.992 471.163 612.637 470.265C613.291 469.356 614.224 468.648 615.435 468.141C616.655 467.633 618.022 467.379 619.536 467.379C621.06 467.379 622.417 467.657 623.608 468.214C624.8 468.761 625.723 469.537 626.377 470.543C627.041 471.549 627.373 472.691 627.373 473.971H622.979C622.979 472.994 622.671 472.237 622.056 471.7C621.44 471.153 620.576 470.88 619.463 470.88C618.389 470.88 617.554 471.109 616.958 471.568C616.362 472.018 616.064 472.613 616.064 473.355C616.064 474.049 616.411 474.63 617.104 475.099C617.808 475.567 618.838 476.007 620.195 476.417C622.695 477.169 624.517 478.102 625.659 479.215C626.802 480.328 627.373 481.715 627.373 483.375C627.373 485.221 626.675 486.671 625.278 487.726C623.882 488.771 622.002 489.293 619.639 489.293C617.998 489.293 616.504 488.995 615.156 488.399C613.809 487.794 612.778 486.969 612.065 485.924C611.362 484.879 611.011 483.668 611.011 482.291H615.42C615.42 484.645 616.826 485.821 619.639 485.821C620.684 485.821 621.499 485.611 622.085 485.191C622.671 484.762 622.964 484.166 622.964 483.404ZM646.416 471.231H639.883V489H635.488V471.231H629.043V467.672H646.416V471.231ZM656.831 481.192H653.33V489H648.936V467.672H656.86C659.38 467.672 661.323 468.233 662.69 469.356C664.058 470.479 664.741 472.066 664.741 474.117C664.741 475.572 664.424 476.788 663.789 477.765C663.164 478.731 662.212 479.503 660.933 480.079L665.547 488.795V489H660.83L656.831 481.192ZM653.33 477.633H656.875C657.979 477.633 658.833 477.354 659.438 476.798C660.044 476.231 660.347 475.455 660.347 474.469C660.347 473.463 660.059 472.672 659.482 472.096C658.916 471.52 658.042 471.231 656.86 471.231H653.33V477.633ZM680.137 484.605H672.432L670.967 489H666.294L674.233 467.672H678.306L686.289 489H681.616L680.137 484.605ZM673.618 481.046H678.95L676.27 473.062L673.618 481.046ZM702.578 471.231H696.045V489H691.65V471.231H685.205V467.672H702.578V471.231ZM717.93 479.757H709.492V485.47H719.395V489H705.098V467.672H719.365V471.231H709.492V476.314H717.93V479.757ZM738.848 486.305C738.057 487.252 736.938 487.989 735.493 488.517C734.048 489.034 732.446 489.293 730.688 489.293C728.843 489.293 727.222 488.893 725.825 488.092C724.438 487.281 723.364 486.109 722.603 484.576C721.851 483.043 721.465 481.241 721.445 479.171V477.721C721.445 475.592 721.802 473.751 722.515 472.198C723.237 470.636 724.272 469.444 725.62 468.624C726.978 467.794 728.564 467.379 730.381 467.379C732.91 467.379 734.888 467.984 736.313 469.195C737.739 470.396 738.584 472.149 738.848 474.454H734.57C734.375 473.233 733.94 472.34 733.267 471.773C732.603 471.207 731.685 470.924 730.513 470.924C729.019 470.924 727.881 471.485 727.1 472.608C726.318 473.731 725.923 475.401 725.913 477.618V478.98C725.913 481.217 726.338 482.906 727.188 484.049C728.037 485.191 729.282 485.763 730.923 485.763C732.573 485.763 733.75 485.411 734.453 484.708V481.031H730.454V477.794H738.848V486.305ZM749.775 477.281L754.214 467.672H759.019L752.017 481.266V489H747.549V481.266L740.547 467.672H745.366L749.775 477.281Z" fill="#687281" fill-opacity="0.8"/>
<path d="M982.257 175.764V184.201H987.97V174.299H991.5V188.596H970.172V174.328H973.731V184.201H978.814V175.764H982.257ZM977.525 164.089L970.172 160.09V155.036L980.748 161.247L991.5 154.875V159.987L984.029 164.089L991.5 168.19V173.303L980.748 166.931L970.172 173.142V168.088L977.525 164.089ZM983.985 148.254H991.5V152.648H970.172V144.328C970.172 142.727 970.465 141.32 971.051 140.109C971.637 138.889 972.472 137.951 973.556 137.297C974.63 136.643 975.855 136.315 977.232 136.315C979.322 136.315 980.973 137.033 982.184 138.469C983.385 139.895 983.985 141.872 983.985 144.401V148.254ZM980.426 148.254V144.328C980.426 143.166 980.152 142.282 979.605 141.677C979.059 141.062 978.277 140.754 977.262 140.754C976.217 140.754 975.372 141.062 974.728 141.677C974.083 142.292 973.751 143.142 973.731 144.226V148.254H980.426ZM987.105 123.85V131.555L991.5 133.02V137.692L970.172 129.753V125.681L991.5 117.697V122.37L987.105 123.85ZM983.546 130.368V125.036L975.562 127.717L983.546 130.368ZM991.5 98.3613V102.756L977.467 111.311H991.5V115.705H970.172V111.311L984.234 102.741H970.172V98.3613H991.5ZM985.904 83.4639C985.074 83.4639 984.439 83.7568 984 84.3428C983.551 84.9287 983.082 85.9834 982.594 87.5068C982.096 89.0303 981.607 90.2363 981.129 91.125C979.82 93.5469 978.058 94.7578 975.841 94.7578C974.688 94.7578 973.663 94.4355 972.765 93.791C971.856 93.1367 971.148 92.2041 970.641 90.9932C970.133 89.7725 969.879 88.4053 969.879 86.8916C969.879 85.3682 970.157 84.0107 970.714 82.8193C971.261 81.6279 972.037 80.7051 973.043 80.0508C974.049 79.3867 975.191 79.0547 976.471 79.0547V83.4492C975.494 83.4492 974.737 83.7568 974.2 84.3721C973.653 84.9873 973.38 85.8516 973.38 86.9648C973.38 88.0391 973.609 88.874 974.068 89.4697C974.518 90.0654 975.113 90.3633 975.855 90.3633C976.549 90.3633 977.13 90.0166 977.599 89.3232C978.067 88.6201 978.507 87.5898 978.917 86.2324C979.669 83.7324 980.602 81.9111 981.715 80.7686C982.828 79.626 984.215 79.0547 985.875 79.0547C987.721 79.0547 989.171 79.7529 990.226 81.1494C991.271 82.5459 991.793 84.4258 991.793 86.7891C991.793 88.4297 991.495 89.9238 990.899 91.2715C990.294 92.6191 989.469 93.6494 988.424 94.3623C987.379 95.0654 986.168 95.417 984.791 95.417V91.0078C987.145 91.0078 988.321 89.6016 988.321 86.7891C988.321 85.7441 988.111 84.9287 987.691 84.3428C987.262 83.7568 986.666 83.4639 985.904 83.4639ZM991.5 71.3936V75.7881H970.172V71.3936H991.5ZM981.319 49.7871C983.419 49.7871 985.26 50.1582 986.842 50.9004C988.424 51.6426 989.645 52.707 990.504 54.0938C991.363 55.4707 991.793 57.0527 991.793 58.8398C991.793 60.6074 991.368 62.1846 990.519 63.5713C989.669 64.958 988.458 66.0322 986.886 66.7939C985.304 67.5557 983.487 67.9414 981.437 67.9512H980.382C978.282 67.9512 976.437 67.5752 974.845 66.8232C973.243 66.0615 972.018 64.9922 971.168 63.6152C970.309 62.2285 969.879 60.6465 969.879 58.8691C969.879 57.0918 970.309 55.5146 971.168 54.1377C972.018 52.751 973.243 51.6816 974.845 50.9297C976.437 50.168 978.277 49.7871 980.367 49.7871H981.319ZM980.353 54.2402C978.116 54.2402 976.417 54.6406 975.255 55.4414C974.093 56.2422 973.512 57.3848 973.512 58.8691C973.512 60.3438 974.088 61.4814 975.24 62.2822C976.383 63.083 978.062 63.4883 980.279 63.498H981.319C983.497 63.498 985.187 63.0977 986.388 62.2969C987.589 61.4961 988.189 60.3438 988.189 58.8398C988.189 57.3652 987.613 56.2324 986.461 55.4414C985.299 54.6504 983.609 54.25 981.393 54.2402H980.353ZM991.5 29.25V33.6445L977.467 42.1992H991.5V46.5938H970.172V42.1992L984.234 33.6299H970.172V29.25H991.5Z" fill="#687281"/>
<path d="M517 165.336V171.195L498.289 182.602H517V188.461H488.562V182.602L507.312 171.176H488.562V165.336H517ZM504.676 143.109V154.359H512.293V141.156H517V160.219H488.562V141.195H493.309V154.359H500.086V143.109H504.676ZM493.309 115.922V124.633H517V130.492H493.309V139.086H488.562V115.922H493.309ZM508.797 90.1016L488.562 86.2734V80.4336L517 86.7422V92.6406L497.977 97.2695L517 101.898V107.797L488.562 114.105V108.266L508.758 104.418L488.562 99.7305V94.7695L508.797 90.1016ZM503.426 53.8906C506.225 53.8906 508.68 54.3854 510.789 55.375C512.898 56.3646 514.526 57.7839 515.672 59.6328C516.818 61.4688 517.391 63.5781 517.391 65.9609C517.391 68.3177 516.824 70.4206 515.691 72.2695C514.559 74.1185 512.944 75.5508 510.848 76.5664C508.738 77.582 506.316 78.0964 503.582 78.1094H502.176C499.376 78.1094 496.915 77.6081 494.793 76.6055C492.658 75.5898 491.023 74.1641 489.891 72.3281C488.745 70.4792 488.172 68.3698 488.172 66C488.172 63.6302 488.745 61.5273 489.891 59.6914C491.023 57.8424 492.658 56.4167 494.793 55.4141C496.915 54.3984 499.37 53.8906 502.156 53.8906H503.426ZM502.137 59.8281C499.155 59.8281 496.889 60.362 495.34 61.4297C493.79 62.4974 493.016 64.0208 493.016 66C493.016 67.9661 493.784 69.4831 495.32 70.5508C496.844 71.6185 499.083 72.1589 502.039 72.1719H503.426C506.329 72.1719 508.582 71.638 510.184 70.5703C511.785 69.5026 512.586 67.9661 512.586 65.9609C512.586 63.9948 511.818 62.4844 510.281 61.4297C508.732 60.375 506.479 59.8411 503.523 59.8281H502.137ZM506.59 39.1055V43.7734H517V49.6328H488.562V39.0664C488.562 35.707 489.311 33.1159 490.809 31.293C492.306 29.4701 494.422 28.5586 497.156 28.5586C499.096 28.5586 500.717 28.9818 502.02 29.8281C503.309 30.6615 504.337 31.931 505.105 33.6367L516.727 27.4844H517V33.7734L506.59 39.1055ZM501.844 43.7734V39.0469C501.844 37.5755 501.473 36.4362 500.73 35.6289C499.975 34.8216 498.94 34.418 497.625 34.418C496.284 34.418 495.229 34.8021 494.461 35.5703C493.693 36.3255 493.309 37.4909 493.309 39.0664V43.7734H501.844ZM505.594 15.1797L508.875 18.2266H517V24.0859H488.562V18.2266H501.453L497.918 15.6484L488.562 8.40234V1.19531L501.199 11.293L517 0.902344V7.875L505.594 15.1797Z" fill="#687281" fill-opacity="0.5"/>
<path d="M458.605 302.055V309.76L463 311.225V315.897L441.672 307.958V303.886L463 295.902V300.575L458.605 302.055ZM455.046 308.573V303.241L447.062 305.922L455.046 308.573ZM463 276.566V280.961L448.967 289.516H463V293.91H441.672V289.516L455.734 280.946H441.672V276.566H463ZM458.605 260.424V268.129L463 269.594V274.267L441.672 266.327V262.255L463 254.271V258.944L458.605 260.424ZM455.046 266.942V261.61L447.062 264.291L455.046 266.942ZM459.47 247.885V238.554H463V252.279H441.672V247.885H459.47ZM451.281 232.768L441.672 228.329V223.524L455.266 230.526H463V234.994H455.266L441.672 241.996V237.177L451.281 232.768ZM457.404 210.751C456.574 210.751 455.939 211.044 455.5 211.63C455.051 212.216 454.582 213.271 454.094 214.794C453.596 216.317 453.107 217.523 452.629 218.412C451.32 220.834 449.558 222.045 447.341 222.045C446.188 222.045 445.163 221.723 444.265 221.078C443.356 220.424 442.648 219.491 442.141 218.28C441.633 217.06 441.379 215.692 441.379 214.179C441.379 212.655 441.657 211.298 442.214 210.106C442.761 208.915 443.537 207.992 444.543 207.338C445.549 206.674 446.691 206.342 447.971 206.342V210.736C446.994 210.736 446.237 211.044 445.7 211.659C445.153 212.274 444.88 213.139 444.88 214.252C444.88 215.326 445.109 216.161 445.568 216.757C446.018 217.353 446.613 217.65 447.355 217.65C448.049 217.65 448.63 217.304 449.099 216.61C449.567 215.907 450.007 214.877 450.417 213.52C451.169 211.02 452.102 209.198 453.215 208.056C454.328 206.913 455.715 206.342 457.375 206.342C459.221 206.342 460.671 207.04 461.726 208.437C462.771 209.833 463.293 211.713 463.293 214.076C463.293 215.717 462.995 217.211 462.399 218.559C461.794 219.906 460.969 220.937 459.924 221.649C458.879 222.353 457.668 222.704 456.291 222.704V218.295C458.645 218.295 459.821 216.889 459.821 214.076C459.821 213.031 459.611 212.216 459.191 211.63C458.762 211.044 458.166 210.751 457.404 210.751ZM463 198.681V203.075H441.672V198.681H463ZM457.404 183.534C456.574 183.534 455.939 183.827 455.5 184.413C455.051 184.999 454.582 186.054 454.094 187.577C453.596 189.101 453.107 190.307 452.629 191.195C451.32 193.617 449.558 194.828 447.341 194.828C446.188 194.828 445.163 194.506 444.265 193.861C443.356 193.207 442.648 192.274 442.141 191.063C441.633 189.843 441.379 188.476 441.379 186.962C441.379 185.438 441.657 184.081 442.214 182.89C442.761 181.698 443.537 180.775 444.543 180.121C445.549 179.457 446.691 179.125 447.971 179.125V183.52C446.994 183.52 446.237 183.827 445.7 184.442C445.153 185.058 444.88 185.922 444.88 187.035C444.88 188.109 445.109 188.944 445.568 189.54C446.018 190.136 446.613 190.434 447.355 190.434C448.049 190.434 448.63 190.087 449.099 189.394C449.567 188.69 450.007 187.66 450.417 186.303C451.169 183.803 452.102 181.981 453.215 180.839C454.328 179.696 455.715 179.125 457.375 179.125C459.221 179.125 460.671 179.823 461.726 181.22C462.771 182.616 463.293 184.496 463.293 186.859C463.293 188.5 462.995 189.994 462.399 191.342C461.794 192.689 460.969 193.72 459.924 194.433C458.879 195.136 457.668 195.487 456.291 195.487V191.078C458.645 191.078 459.821 189.672 459.821 186.859C459.821 185.814 459.611 184.999 459.191 184.413C458.762 183.827 458.166 183.534 457.404 183.534Z" fill="#687281"/>
<path opacity="0.8" d="M776.8 527.192H773.299V535H768.904V513.672H776.829C779.349 513.672 781.292 514.233 782.659 515.356C784.026 516.479 784.71 518.066 784.71 520.117C784.71 521.572 784.393 522.788 783.758 523.765C783.133 524.731 782.181 525.503 780.901 526.079L785.516 534.795V535H780.799L776.8 527.192ZM773.299 523.633H776.844C777.947 523.633 778.802 523.354 779.407 522.798C780.013 522.231 780.315 521.455 780.315 520.469C780.315 519.463 780.027 518.672 779.451 518.096C778.885 517.52 778.011 517.231 776.829 517.231H773.299V523.633ZM800.896 525.757H792.459V531.47H802.361V535H788.064V513.672H802.332V517.231H792.459V522.314H800.896V525.757ZM815.999 529.404C815.999 528.574 815.706 527.939 815.12 527.5C814.534 527.051 813.479 526.582 811.956 526.094C810.433 525.596 809.227 525.107 808.338 524.629C805.916 523.32 804.705 521.558 804.705 519.341C804.705 518.188 805.027 517.163 805.672 516.265C806.326 515.356 807.259 514.648 808.47 514.141C809.69 513.633 811.058 513.379 812.571 513.379C814.095 513.379 815.452 513.657 816.644 514.214C817.835 514.761 818.758 515.537 819.412 516.543C820.076 517.549 820.408 518.691 820.408 519.971H816.014C816.014 518.994 815.706 518.237 815.091 517.7C814.476 517.153 813.611 516.88 812.498 516.88C811.424 516.88 810.589 517.109 809.993 517.568C809.397 518.018 809.1 518.613 809.1 519.355C809.1 520.049 809.446 520.63 810.14 521.099C810.843 521.567 811.873 522.007 813.23 522.417C815.73 523.169 817.552 524.102 818.694 525.215C819.837 526.328 820.408 527.715 820.408 529.375C820.408 531.221 819.71 532.671 818.313 533.726C816.917 534.771 815.037 535.293 812.674 535.293C811.033 535.293 809.539 534.995 808.191 534.399C806.844 533.794 805.813 532.969 805.101 531.924C804.397 530.879 804.046 529.668 804.046 528.291H808.455C808.455 530.645 809.861 531.821 812.674 531.821C813.719 531.821 814.534 531.611 815.12 531.191C815.706 530.762 815.999 530.166 815.999 529.404ZM836.229 525.757H827.791V531.47H837.693V535H823.396V513.672H837.664V517.231H827.791V522.314H836.229V525.757ZM852.312 530.605H844.607L843.143 535H838.47L846.409 513.672H850.481L858.465 535H853.792L852.312 530.605ZM845.794 527.046H851.126L848.445 519.062L845.794 527.046ZM868.353 527.192H864.852V535H860.457V513.672H868.382C870.901 513.672 872.845 514.233 874.212 515.356C875.579 516.479 876.263 518.066 876.263 520.117C876.263 521.572 875.945 522.788 875.311 523.765C874.686 524.731 873.733 525.503 872.454 526.079L877.068 534.795V535H872.352L868.353 527.192ZM864.852 523.633H868.396C869.5 523.633 870.354 523.354 870.96 522.798C871.565 522.231 871.868 521.455 871.868 520.469C871.868 519.463 871.58 518.672 871.004 518.096C870.438 517.52 869.563 517.231 868.382 517.231H864.852V523.633ZM896.36 527.896C896.194 530.19 895.345 531.997 893.812 533.315C892.288 534.634 890.276 535.293 887.776 535.293C885.042 535.293 882.889 534.375 881.316 532.539C879.754 530.693 878.973 528.164 878.973 524.951V523.647C878.973 521.597 879.334 519.79 880.057 518.228C880.779 516.665 881.81 515.469 883.147 514.639C884.495 513.799 886.058 513.379 887.835 513.379C890.296 513.379 892.278 514.038 893.782 515.356C895.286 516.675 896.155 518.525 896.39 520.908H891.995C891.888 519.531 891.502 518.535 890.838 517.92C890.184 517.295 889.183 516.982 887.835 516.982C886.37 516.982 885.271 517.51 884.539 518.564C883.816 519.609 883.445 521.235 883.426 523.442V525.054C883.426 527.358 883.772 529.043 884.466 530.107C885.169 531.172 886.272 531.704 887.776 531.704C889.134 531.704 890.145 531.396 890.809 530.781C891.482 530.156 891.868 529.194 891.966 527.896H896.36ZM916.604 535H912.21V525.859H903.641V535H899.246V513.672H903.641V522.314H912.21V513.672H916.604V535Z" fill="#455469" fill-opacity="0.6"/>
<path opacity="0.8" d="M1175.9 482V460.672H1182.47C1184.34 460.672 1186.02 461.097 1187.49 461.946C1188.98 462.786 1190.13 463.987 1190.96 465.55C1191.79 467.103 1192.21 468.87 1192.21 470.853V471.834C1192.21 473.816 1191.8 475.579 1190.98 477.122C1190.17 478.665 1189.02 479.861 1187.54 480.711C1186.05 481.561 1184.38 481.99 1182.51 482H1175.9ZM1180.3 464.231V478.47H1182.42C1184.14 478.47 1185.46 477.908 1186.36 476.785C1187.27 475.662 1187.74 474.056 1187.75 471.966V470.838C1187.75 468.67 1187.31 467.029 1186.41 465.916C1185.51 464.793 1184.2 464.231 1182.47 464.231H1180.3ZM1208.25 472.757H1199.81V478.47H1209.71V482H1195.42V460.672H1209.68V464.231H1199.81V469.314H1208.25V472.757ZM1220.17 476.712L1225.01 460.672H1229.9L1222.47 482H1217.89L1210.49 460.672H1215.37L1220.17 476.712ZM1244.75 472.757H1236.31V478.47H1246.22V482H1231.92V460.672H1246.19V464.231H1236.31V469.314H1244.75V472.757ZM1253.19 478.47H1262.52V482H1248.79V460.672H1253.19V478.47ZM1281.64 471.819C1281.64 473.919 1281.27 475.76 1280.52 477.342C1279.78 478.924 1278.72 480.145 1277.33 481.004C1275.95 481.863 1274.37 482.293 1272.58 482.293C1270.82 482.293 1269.24 481.868 1267.85 481.019C1266.47 480.169 1265.39 478.958 1264.63 477.386C1263.87 475.804 1263.48 473.987 1263.47 471.937V470.882C1263.47 468.782 1263.85 466.937 1264.6 465.345C1265.36 463.743 1266.43 462.518 1267.81 461.668C1269.2 460.809 1270.78 460.379 1272.55 460.379C1274.33 460.379 1275.91 460.809 1277.29 461.668C1278.67 462.518 1279.74 463.743 1280.49 465.345C1281.26 466.937 1281.64 468.777 1281.64 470.867V471.819ZM1277.18 470.853C1277.18 468.616 1276.78 466.917 1275.98 465.755C1275.18 464.593 1274.04 464.012 1272.55 464.012C1271.08 464.012 1269.94 464.588 1269.14 465.74C1268.34 466.883 1267.94 468.562 1267.93 470.779V471.819C1267.93 473.997 1268.33 475.687 1269.13 476.888C1269.93 478.089 1271.08 478.689 1272.58 478.689C1274.06 478.689 1275.19 478.113 1275.98 476.961C1276.77 475.799 1277.17 474.109 1277.18 471.893V470.853ZM1289.22 474.485V482H1284.83V460.672H1293.15C1294.75 460.672 1296.16 460.965 1297.37 461.551C1298.59 462.137 1299.53 462.972 1300.18 464.056C1300.84 465.13 1301.16 466.355 1301.16 467.732C1301.16 469.822 1300.45 471.473 1299.01 472.684C1297.58 473.885 1295.61 474.485 1293.08 474.485H1289.22ZM1289.22 470.926H1293.15C1294.31 470.926 1295.2 470.652 1295.8 470.105C1296.42 469.559 1296.72 468.777 1296.72 467.762C1296.72 466.717 1296.42 465.872 1295.8 465.228C1295.19 464.583 1294.34 464.251 1293.25 464.231H1289.22V470.926ZM1309.94 460.672L1315.42 476.141L1320.87 460.672H1326.64V482H1322.23V476.17L1322.67 466.106L1316.91 482H1313.89L1308.15 466.121L1308.59 476.17V482H1304.2V460.672H1309.94ZM1343.31 472.757H1334.87V478.47H1344.77V482H1330.47V460.672H1344.74V464.231H1334.87V469.314H1343.31V472.757ZM1364.69 482H1360.3L1351.74 467.967V482H1347.35V460.672H1351.74L1360.31 474.734V460.672H1364.69V482ZM1384.15 464.231H1377.61V482H1373.22V464.231H1366.77V460.672H1384.15V464.231Z" fill="#455469"/>
</g>
<g opacity="0.7">
<path d="M3.80859 282V239.344H16.9336C20.6836 239.344 24.0332 240.193 26.9824 241.893C29.9512 243.572 32.2656 245.975 33.9258 249.1C35.5859 252.205 36.416 255.74 36.416 259.705V261.668C36.416 265.633 35.5957 269.158 33.9551 272.244C32.334 275.33 30.0391 277.723 27.0703 279.422C24.1016 281.121 20.752 281.98 17.0215 282H3.80859ZM12.5977 246.463V274.939H16.8457C20.2832 274.939 22.9102 273.816 24.7266 271.57C26.543 269.324 27.4707 266.111 27.5098 261.932V259.676C27.5098 255.34 26.6113 252.059 24.8145 249.832C23.0176 247.586 20.3906 246.463 16.9336 246.463H12.5977ZM52.1777 282H43.3887V239.344H52.1777V282ZM76.1133 271.424L85.7812 239.344H95.5664L80.7129 282H71.543L56.748 239.344H66.5039L76.1133 271.424ZM125.273 263.514H108.398V274.939H128.203V282H99.6094V239.344H128.145V246.463H108.398V256.629H125.273V263.514ZM149.15 266.385H142.148V282H133.359V239.344H149.209C154.248 239.344 158.135 240.467 160.869 242.713C163.604 244.959 164.971 248.133 164.971 252.234C164.971 255.145 164.336 257.576 163.066 259.529C161.816 261.463 159.912 263.006 157.354 264.158L166.582 281.59V282H157.148L149.15 266.385ZM142.148 259.266H149.238C151.445 259.266 153.154 258.709 154.365 257.596C155.576 256.463 156.182 254.91 156.182 252.938C156.182 250.926 155.605 249.344 154.453 248.191C153.32 247.039 151.572 246.463 149.209 246.463H142.148V259.266ZM193.799 270.809C193.799 269.148 193.213 267.879 192.041 267C190.869 266.102 188.76 265.164 185.713 264.188C182.666 263.191 180.254 262.215 178.477 261.258C173.633 258.641 171.211 255.115 171.211 250.682C171.211 248.377 171.855 246.326 173.145 244.529C174.453 242.713 176.318 241.297 178.74 240.281C181.182 239.266 183.916 238.758 186.943 238.758C189.99 238.758 192.705 239.314 195.088 240.428C197.471 241.521 199.316 243.074 200.625 245.086C201.953 247.098 202.617 249.383 202.617 251.941H193.828C193.828 249.988 193.213 248.475 191.982 247.4C190.752 246.307 189.023 245.76 186.797 245.76C184.648 245.76 182.979 246.219 181.787 247.137C180.596 248.035 180 249.227 180 250.711C180 252.098 180.693 253.26 182.08 254.197C183.486 255.135 185.547 256.014 188.262 256.834C193.262 258.338 196.904 260.203 199.189 262.43C201.475 264.656 202.617 267.43 202.617 270.75C202.617 274.441 201.221 277.342 198.428 279.451C195.635 281.541 191.875 282.586 187.148 282.586C183.867 282.586 180.879 281.99 178.184 280.799C175.488 279.588 173.428 277.938 172.002 275.848C170.596 273.758 169.893 271.336 169.893 268.582H178.711C178.711 273.289 181.523 275.643 187.148 275.643C189.238 275.643 190.869 275.223 192.041 274.383C193.213 273.523 193.799 272.332 193.799 270.809ZM217.939 282H209.15V239.344H217.939V282ZM257.344 246.463H244.277V282H235.488V246.463H222.598V239.344H257.344V246.463ZM277.559 258.562L286.436 239.344H296.045L282.041 266.531V282H273.105V266.531L259.102 239.344H268.74L277.559 258.562Z" fill="#637083" fill-opacity="0.7"/>
<path d="M188.07 346.924L197.738 314.844H207.523L192.67 357.5H183.5L168.705 314.844H178.461L188.07 346.924ZM233.422 348.711H218.012L215.082 357.5H205.736L221.615 314.844H229.76L245.727 357.5H236.381L233.422 348.711ZM220.385 341.592H231.049L225.688 325.625L220.385 341.592ZM258.5 350.439H277.162V357.5H249.711V314.844H258.5V350.439ZM313.812 314.844V342.939C313.812 347.607 312.348 351.299 309.418 354.014C306.508 356.729 302.523 358.086 297.465 358.086C292.484 358.086 288.529 356.768 285.6 354.131C282.67 351.494 281.176 347.871 281.117 343.262V314.844H289.906V342.998C289.906 345.791 290.57 347.832 291.898 349.121C293.246 350.391 295.102 351.025 297.465 351.025C302.406 351.025 304.916 348.428 304.994 343.232V314.844H313.812ZM346.684 339.014H329.809V350.439H349.613V357.5H321.02V314.844H349.555V321.963H329.809V332.129H346.684V339.014Z" fill="#455469" fill-opacity="0.3"/>
<path d="M1360.56 389.595H1346.5V399.116H1363V405H1339.17V369.453H1362.95V375.386H1346.5V383.857H1360.56V389.595ZM1380.02 381.709L1386.68 369.453H1395.11L1384.75 387.08L1395.38 405H1386.85L1380.02 392.549L1373.18 405H1364.66L1375.28 387.08L1364.93 369.453H1373.35L1380.02 381.709ZM1406.41 392.476V405H1399.09V369.453H1412.95C1415.62 369.453 1417.97 369.941 1419.98 370.918C1422.02 371.895 1423.58 373.286 1424.67 375.093C1425.76 376.883 1426.31 378.926 1426.31 381.221C1426.31 384.704 1425.11 387.454 1422.72 389.473C1420.34 391.475 1417.05 392.476 1412.83 392.476H1406.41ZM1406.41 386.543H1412.95C1414.89 386.543 1416.36 386.087 1417.37 385.176C1418.4 384.264 1418.91 382.962 1418.91 381.27C1418.91 379.528 1418.4 378.12 1417.37 377.046C1416.35 375.972 1414.93 375.418 1413.12 375.386H1406.41V386.543ZM1447.08 397.676H1434.24L1431.8 405H1424.01L1437.25 369.453H1444.03L1457.34 405H1449.55L1447.08 397.676ZM1436.22 391.743H1445.11L1440.64 378.438L1436.22 391.743ZM1489.56 405H1482.24L1467.98 381.611V405H1460.66V369.453H1467.98L1482.26 392.891V369.453H1489.56V405ZM1514.39 395.674C1514.39 394.29 1513.91 393.232 1512.93 392.5C1511.95 391.751 1510.19 390.97 1507.66 390.156C1505.12 389.326 1503.11 388.512 1501.62 387.715C1497.59 385.534 1495.57 382.596 1495.57 378.901C1495.57 376.981 1496.11 375.272 1497.18 373.774C1498.27 372.261 1499.83 371.081 1501.84 370.234C1503.88 369.388 1506.16 368.965 1508.68 368.965C1511.22 368.965 1513.48 369.429 1515.47 370.356C1517.45 371.268 1518.99 372.562 1520.08 374.238C1521.19 375.915 1521.74 377.819 1521.74 379.951H1514.42C1514.42 378.324 1513.91 377.062 1512.88 376.167C1511.85 375.256 1510.41 374.8 1508.56 374.8C1506.77 374.8 1505.38 375.182 1504.38 375.947C1503.39 376.696 1502.89 377.689 1502.89 378.926C1502.89 380.081 1503.47 381.05 1504.63 381.831C1505.8 382.612 1507.52 383.345 1509.78 384.028C1513.95 385.282 1516.98 386.836 1518.89 388.691C1520.79 390.547 1521.74 392.858 1521.74 395.625C1521.74 398.701 1520.58 401.118 1518.25 402.876C1515.92 404.618 1512.79 405.488 1508.85 405.488C1506.12 405.488 1503.63 404.992 1501.38 403.999C1499.13 402.99 1497.42 401.615 1496.23 399.873C1495.06 398.132 1494.47 396.113 1494.47 393.818H1501.82C1501.82 397.741 1504.16 399.702 1508.85 399.702C1510.59 399.702 1511.95 399.352 1512.93 398.652C1513.91 397.936 1514.39 396.943 1514.39 395.674ZM1534.51 405H1527.19V369.453H1534.51V405ZM1570.52 388.032C1570.52 391.532 1569.9 394.6 1568.67 397.236C1567.43 399.873 1565.65 401.908 1563.34 403.34C1561.05 404.772 1558.41 405.488 1555.43 405.488C1552.49 405.488 1549.86 404.78 1547.55 403.364C1545.24 401.948 1543.45 399.93 1542.18 397.31C1540.91 394.673 1540.26 391.646 1540.25 388.228V386.47C1540.25 382.97 1540.87 379.894 1542.13 377.241C1543.4 374.572 1545.18 372.529 1547.47 371.113C1549.79 369.681 1552.42 368.965 1555.38 368.965C1558.35 368.965 1560.98 369.681 1563.27 371.113C1565.58 372.529 1567.36 374.572 1568.62 377.241C1569.89 379.894 1570.52 382.962 1570.52 386.445V388.032ZM1563.1 386.421C1563.1 382.694 1562.43 379.862 1561.1 377.925C1559.76 375.988 1557.86 375.02 1555.38 375.02C1552.93 375.02 1551.03 375.98 1549.7 377.9C1548.36 379.805 1547.69 382.604 1547.67 386.299V388.032C1547.67 391.662 1548.34 394.478 1549.67 396.479C1551.01 398.481 1552.93 399.482 1555.43 399.482C1557.89 399.482 1559.78 398.522 1561.1 396.602C1562.42 394.665 1563.08 391.849 1563.1 388.154V386.421ZM1604.75 405H1597.43L1583.17 381.611V405H1575.84V369.453H1583.17L1597.45 392.891V369.453H1604.75V405Z" fill="#687281" fill-opacity="0.4"/>
<path d="M1333.94 307.347H1324.14V334H1317.55V307.347H1307.88V302.008H1333.94V307.347ZM1349.56 322.289H1344.31V334H1337.72V302.008H1349.6C1353.38 302.008 1356.3 302.85 1358.35 304.535C1360.4 306.219 1361.43 308.6 1361.43 311.676C1361.43 313.858 1360.95 315.682 1360 317.147C1359.06 318.597 1357.63 319.754 1355.71 320.619L1362.63 333.692V334H1355.56L1349.56 322.289ZM1344.31 316.949H1349.63C1351.28 316.949 1352.56 316.532 1353.47 315.697C1354.38 314.847 1354.83 313.683 1354.83 312.203C1354.83 310.694 1354.4 309.508 1353.54 308.644C1352.69 307.779 1351.38 307.347 1349.6 307.347H1344.31V316.949ZM1384.52 327.408H1372.96L1370.76 334H1363.76L1375.66 302.008H1381.77L1393.75 334H1386.74L1384.52 327.408ZM1374.74 322.069H1382.74L1378.72 310.094L1374.74 322.069ZM1422.75 334H1416.16L1403.33 312.95V334H1396.74V302.008H1403.33L1416.18 323.102V302.008H1422.75V334ZM1445.1 325.606C1445.1 324.361 1444.66 323.409 1443.78 322.75C1442.9 322.076 1441.32 321.373 1439.03 320.641C1436.75 319.894 1434.94 319.161 1433.61 318.443C1429.97 316.48 1428.16 313.836 1428.16 310.511C1428.16 308.783 1428.64 307.245 1429.61 305.897C1430.59 304.535 1431.99 303.473 1433.8 302.711C1435.64 301.949 1437.69 301.568 1439.96 301.568C1442.24 301.568 1444.28 301.986 1446.06 302.821C1447.85 303.641 1449.24 304.806 1450.22 306.314C1451.21 307.823 1451.71 309.537 1451.71 311.456H1445.12C1445.12 309.991 1444.66 308.856 1443.74 308.05C1442.81 307.23 1441.52 306.82 1439.85 306.82C1438.24 306.82 1436.98 307.164 1436.09 307.853C1435.2 308.526 1434.75 309.42 1434.75 310.533C1434.75 311.573 1435.27 312.445 1436.31 313.148C1437.36 313.851 1438.91 314.51 1440.95 315.125C1444.7 316.253 1447.43 317.652 1449.14 319.322C1450.85 320.992 1451.71 323.072 1451.71 325.562C1451.71 328.331 1450.66 330.506 1448.57 332.088C1446.48 333.656 1443.66 334.439 1440.11 334.439C1437.65 334.439 1435.41 333.993 1433.39 333.099C1431.37 332.191 1429.82 330.953 1428.75 329.386C1427.7 327.818 1427.17 326.002 1427.17 323.937H1433.78C1433.78 327.467 1435.89 329.232 1440.11 329.232C1441.68 329.232 1442.9 328.917 1443.78 328.287C1444.66 327.643 1445.1 326.749 1445.1 325.606ZM1475.44 320.926H1462.79V334H1456.19V302.008H1477.02V307.347H1462.79V315.609H1475.44V320.926ZM1507.13 318.729C1507.13 321.878 1506.57 324.64 1505.46 327.013C1504.34 329.386 1502.75 331.217 1500.67 332.506C1498.6 333.795 1496.23 334.439 1493.55 334.439C1490.9 334.439 1488.53 333.802 1486.45 332.528C1484.37 331.253 1482.76 329.437 1481.62 327.079C1480.47 324.706 1479.9 321.981 1479.88 318.905V317.323C1479.88 314.173 1480.44 311.405 1481.57 309.017C1482.72 306.615 1484.32 304.776 1486.38 303.502C1488.46 302.213 1490.84 301.568 1493.5 301.568C1496.17 301.568 1498.54 302.213 1500.6 303.502C1502.68 304.776 1504.29 306.615 1505.41 309.017C1506.56 311.405 1507.13 314.166 1507.13 317.301V318.729ZM1500.45 317.279C1500.45 313.924 1499.85 311.375 1498.65 309.632C1497.44 307.889 1495.73 307.018 1493.5 307.018C1491.29 307.018 1489.59 307.882 1488.38 309.61C1487.18 311.324 1486.58 313.844 1486.56 317.169V318.729C1486.56 321.996 1487.16 324.53 1488.36 326.332C1489.56 328.133 1491.29 329.034 1493.55 329.034C1495.76 329.034 1497.46 328.17 1498.65 326.441C1499.83 324.698 1500.43 322.164 1500.45 318.839V317.279ZM1523.76 322.289H1518.51V334H1511.92V302.008H1523.8C1527.58 302.008 1530.5 302.85 1532.55 304.535C1534.6 306.219 1535.63 308.6 1535.63 311.676C1535.63 313.858 1535.15 315.682 1534.2 317.147C1533.26 318.597 1531.83 319.754 1529.91 320.619L1536.83 333.692V334H1529.76L1523.76 322.289ZM1518.51 316.949H1523.83C1525.48 316.949 1526.76 316.532 1527.67 315.697C1528.58 314.847 1529.03 313.683 1529.03 312.203C1529.03 310.694 1528.6 309.508 1527.74 308.644C1526.89 307.779 1525.58 307.347 1523.8 307.347H1518.51V316.949ZM1549.27 302.008L1557.49 325.211L1565.66 302.008H1574.32V334H1567.71V325.255L1568.36 310.16L1559.73 334H1555.2L1546.59 310.182L1547.25 325.255V334H1540.66V302.008H1549.27ZM1598.53 327.408H1586.98L1584.78 334H1577.77L1589.68 302.008H1595.79L1607.76 334H1600.75L1598.53 327.408ZM1588.76 322.069H1596.75L1592.73 310.094L1588.76 322.069ZM1632.2 307.347H1622.4V334H1615.8V307.347H1606.14V302.008H1632.2V307.347ZM1642.98 334H1636.39V302.008H1642.98V334ZM1675.39 318.729C1675.39 321.878 1674.84 324.64 1673.72 327.013C1672.61 329.386 1671.01 331.217 1668.93 332.506C1666.87 333.795 1664.5 334.439 1661.81 334.439C1659.16 334.439 1656.8 333.802 1654.72 332.528C1652.64 331.253 1651.03 329.437 1649.88 327.079C1648.74 324.706 1648.16 321.981 1648.15 318.905V317.323C1648.15 314.173 1648.71 311.405 1649.84 309.017C1650.98 306.615 1652.59 304.776 1654.65 303.502C1656.73 302.213 1659.1 301.568 1661.77 301.568C1664.44 301.568 1666.8 302.213 1668.87 303.502C1670.95 304.776 1672.55 306.615 1673.68 309.017C1674.82 311.405 1675.39 314.166 1675.39 317.301V318.729ZM1668.71 317.279C1668.71 313.924 1668.11 311.375 1666.91 309.632C1665.71 307.889 1664 307.018 1661.77 307.018C1659.56 307.018 1657.85 307.882 1656.65 309.61C1655.45 311.324 1654.84 313.844 1654.83 317.169V318.729C1654.83 321.996 1655.43 324.53 1656.63 326.332C1657.83 328.133 1659.56 329.034 1661.81 329.034C1664.03 329.034 1665.73 328.17 1666.91 326.441C1668.1 324.698 1668.7 322.164 1668.71 318.839V317.279ZM1706.2 334H1699.61L1686.78 312.95V334H1680.18V302.008H1686.78L1699.63 323.102V302.008H1706.2V334Z" fill="#455469" fill-opacity="0.7"/>
<path d="M576.714 49.686H562.994V87H553.766V49.686H540.23V42.2109H576.714V49.686ZM608.952 67.5894H591.233V79.5864H612.028V87H582.005V42.2109H611.967V49.686H591.233V60.3604H608.952V67.5894ZM652.603 72.0806C652.254 76.8999 650.47 80.6938 647.25 83.4624C644.051 86.231 639.827 87.6152 634.577 87.6152C628.834 87.6152 624.312 85.6875 621.011 81.832C617.729 77.9561 616.089 72.6445 616.089 65.8975V63.1597C616.089 58.853 616.848 55.0591 618.365 51.7778C619.883 48.4966 622.046 45.9844 624.856 44.2412C627.686 42.4775 630.967 41.5957 634.7 41.5957C639.868 41.5957 644.031 42.98 647.189 45.7485C650.347 48.5171 652.172 52.4033 652.665 57.4072H643.436C643.21 54.5156 642.4 52.4238 641.006 51.1318C639.632 49.8193 637.53 49.1631 634.7 49.1631C631.624 49.1631 629.316 50.2705 627.778 52.4854C626.261 54.6797 625.481 58.0942 625.44 62.729V66.1128C625.44 70.9526 626.168 74.4902 627.625 76.7256C629.101 78.9609 631.418 80.0786 634.577 80.0786C637.427 80.0786 639.55 79.4326 640.944 78.1406C642.359 76.8281 643.169 74.8081 643.375 72.0806H652.603ZM695.116 87H685.887V67.8047H667.892V87H658.663V42.2109H667.892V60.3604H685.887V42.2109H695.116V87ZM739.628 87H730.399L712.435 57.5303V87H703.206V42.2109H712.435L730.43 71.7422V42.2109H739.628V87ZM784.479 65.6206C784.479 70.0298 783.699 73.8955 782.141 77.2178C780.582 80.54 778.347 83.1035 775.435 84.9082C772.543 86.7129 769.221 87.6152 765.468 87.6152C761.756 87.6152 758.444 86.7231 755.532 84.939C752.62 83.1548 750.364 80.6118 748.764 77.3101C747.165 73.9878 746.354 70.1733 746.334 65.8667V63.6519C746.334 59.2427 747.124 55.3667 748.703 52.0239C750.302 48.6606 752.548 46.0869 755.439 44.3027C758.352 42.498 761.674 41.5957 765.406 41.5957C769.139 41.5957 772.451 42.498 775.342 44.3027C778.254 46.0869 780.5 48.6606 782.079 52.0239C783.679 55.3667 784.479 59.2324 784.479 63.6211V65.6206ZM775.127 63.5903C775.127 58.894 774.286 55.3257 772.604 52.8853C770.923 50.4448 768.523 49.2246 765.406 49.2246C762.31 49.2246 759.92 50.4346 758.239 52.8545C756.557 55.2539 755.706 58.7812 755.686 63.4365V65.6206C755.686 70.1938 756.526 73.7417 758.208 76.2642C759.89 78.7866 762.31 80.0479 765.468 80.0479C768.564 80.0479 770.943 78.8379 772.604 76.418C774.266 73.9775 775.106 70.4297 775.127 65.7744V63.5903ZM800.413 79.5864H820.008V87H791.185V42.2109H800.413V79.5864ZM860.152 65.6206C860.152 70.0298 859.373 73.8955 857.814 77.2178C856.256 80.54 854.021 83.1035 851.108 84.9082C848.217 86.7129 844.895 87.6152 841.142 87.6152C837.43 87.6152 834.118 86.7231 831.206 84.939C828.293 83.1548 826.038 80.6118 824.438 77.3101C822.838 73.9878 822.028 70.1733 822.008 65.8667V63.6519C822.008 59.2427 822.797 55.3667 824.376 52.0239C825.976 48.6606 828.222 46.0869 831.113 44.3027C834.025 42.498 837.348 41.5957 841.08 41.5957C844.812 41.5957 848.125 42.498 851.016 44.3027C853.928 46.0869 856.174 48.6606 857.753 52.0239C859.353 55.3667 860.152 59.2324 860.152 63.6211V65.6206ZM850.801 63.5903C850.801 58.894 849.96 55.3257 848.278 52.8853C846.597 50.4448 844.197 49.2246 841.08 49.2246C837.983 49.2246 835.594 50.4346 833.913 52.8545C832.231 55.2539 831.38 58.7812 831.359 63.4365V65.6206C831.359 70.1938 832.2 73.7417 833.882 76.2642C835.563 78.7866 837.983 80.0479 841.142 80.0479C844.238 80.0479 846.617 78.8379 848.278 76.418C849.939 73.9775 850.78 70.4297 850.801 65.7744V63.5903ZM902.296 81.3398C900.635 83.3291 898.287 84.8774 895.251 85.9849C892.216 87.0718 888.853 87.6152 885.162 87.6152C881.286 87.6152 877.881 86.7744 874.949 85.0928C872.037 83.3906 869.781 80.9297 868.181 77.71C866.602 74.4902 865.792 70.7065 865.751 66.3589V63.3135C865.751 58.8428 866.5 54.9771 867.997 51.7163C869.514 48.4351 871.688 45.9331 874.518 44.2104C877.369 42.4673 880.701 41.5957 884.516 41.5957C889.827 41.5957 893.98 42.8672 896.974 45.4102C899.968 47.9326 901.742 51.6138 902.296 56.4536H893.313C892.903 53.8901 891.991 52.0137 890.576 50.8242C889.181 49.6348 887.253 49.04 884.792 49.04C881.655 49.04 879.266 50.2192 877.625 52.5776C875.984 54.936 875.154 58.4429 875.133 63.0981V65.959C875.133 70.6553 876.025 74.2031 877.81 76.6025C879.594 79.002 882.208 80.2017 885.654 80.2017C889.12 80.2017 891.591 79.4634 893.067 77.9868V70.2656H884.669V63.4673H902.296V81.3398ZM925.244 62.3906L934.565 42.2109H944.655L929.951 70.7578V87H920.568V70.7578L905.864 42.2109H915.985L925.244 62.3906Z" fill="#687281" fill-opacity="0.6"/>
<path d="M1088.96 126.404C1088.96 125.574 1088.67 124.939 1088.08 124.5C1087.5 124.051 1086.44 123.582 1084.92 123.094C1083.4 122.596 1082.19 122.107 1081.3 121.629C1078.88 120.32 1077.67 118.558 1077.67 116.341C1077.67 115.188 1077.99 114.163 1078.64 113.265C1079.29 112.356 1080.22 111.648 1081.43 111.141C1082.66 110.633 1084.02 110.379 1085.54 110.379C1087.06 110.379 1088.42 110.657 1089.61 111.214C1090.8 111.761 1091.72 112.537 1092.38 113.543C1093.04 114.549 1093.37 115.691 1093.37 116.971H1088.98C1088.98 115.994 1088.67 115.237 1088.06 114.7C1087.44 114.153 1086.58 113.88 1085.46 113.88C1084.39 113.88 1083.55 114.109 1082.96 114.568C1082.36 115.018 1082.06 115.613 1082.06 116.355C1082.06 117.049 1082.41 117.63 1083.1 118.099C1083.81 118.567 1084.84 119.007 1086.2 119.417C1088.7 120.169 1090.52 121.102 1091.66 122.215C1092.8 123.328 1093.37 124.715 1093.37 126.375C1093.37 128.221 1092.67 129.671 1091.28 130.726C1089.88 131.771 1088 132.293 1085.64 132.293C1084 132.293 1082.5 131.995 1081.16 131.399C1079.81 130.794 1078.78 129.969 1078.07 128.924C1077.36 127.879 1077.01 126.668 1077.01 125.291H1081.42C1081.42 127.645 1082.83 128.821 1085.64 128.821C1086.68 128.821 1087.5 128.611 1088.08 128.191C1088.67 127.762 1088.96 127.166 1088.96 126.404ZM1112.42 114.231H1105.88V132H1101.49V114.231H1095.04V110.672H1112.42V114.231ZM1122.83 124.192H1119.33V132H1114.94V110.672H1122.86C1125.38 110.672 1127.32 111.233 1128.69 112.356C1130.06 113.479 1130.74 115.066 1130.74 117.117C1130.74 118.572 1130.42 119.788 1129.79 120.765C1129.16 121.731 1128.21 122.503 1126.93 123.079L1131.55 131.795V132H1126.83L1122.83 124.192ZM1119.33 120.633H1122.88C1123.98 120.633 1124.83 120.354 1125.44 119.798C1126.04 119.231 1126.35 118.455 1126.35 117.469C1126.35 116.463 1126.06 115.672 1125.48 115.096C1124.92 114.52 1124.04 114.231 1122.86 114.231H1119.33V120.633ZM1146.14 127.605H1138.43L1136.97 132H1132.29L1140.23 110.672H1144.31L1152.29 132H1147.62L1146.14 127.605ZM1139.62 124.046H1144.95L1142.27 116.062L1139.62 124.046ZM1168.58 114.231H1162.04V132H1157.65V114.231H1151.21V110.672H1168.58V114.231ZM1183.93 122.757H1175.49V128.47H1185.39V132H1171.1V110.672H1185.37V114.231H1175.49V119.314H1183.93V122.757ZM1204.85 129.305C1204.06 130.252 1202.94 130.989 1201.49 131.517C1200.05 132.034 1198.45 132.293 1196.69 132.293C1194.84 132.293 1193.22 131.893 1191.83 131.092C1190.44 130.281 1189.36 129.109 1188.6 127.576C1187.85 126.043 1187.46 124.241 1187.45 122.171V120.721C1187.45 118.592 1187.8 116.751 1188.51 115.198C1189.24 113.636 1190.27 112.444 1191.62 111.624C1192.98 110.794 1194.56 110.379 1196.38 110.379C1198.91 110.379 1200.89 110.984 1202.31 112.195C1203.74 113.396 1204.58 115.149 1204.85 117.454H1200.57C1200.38 116.233 1199.94 115.34 1199.27 114.773C1198.6 114.207 1197.68 113.924 1196.51 113.924C1195.02 113.924 1193.88 114.485 1193.1 115.608C1192.32 116.731 1191.92 118.401 1191.91 120.618V121.98C1191.91 124.217 1192.34 125.906 1193.19 127.049C1194.04 128.191 1195.28 128.763 1196.92 128.763C1198.57 128.763 1199.75 128.411 1200.45 127.708V124.031H1196.45V120.794H1204.85V129.305ZM1215.78 120.281L1220.21 110.672H1225.02L1218.02 124.266V132H1213.55V124.266L1206.55 110.672H1211.37L1215.78 120.281Z" fill="#687281" fill-opacity="0.8"/>
<path opacity="0.8" d="M1023.79 185.467V187.801H1029V190.73H1014.78V185.447C1014.78 183.768 1015.16 182.472 1015.9 181.561C1016.65 180.649 1017.71 180.193 1019.08 180.193C1020.05 180.193 1020.86 180.405 1021.51 180.828C1022.15 181.245 1022.67 181.88 1023.05 182.732L1028.86 179.656H1029V182.801L1023.79 185.467ZM1021.42 187.801V185.438C1021.42 184.702 1021.24 184.132 1020.87 183.729C1020.49 183.325 1019.97 183.123 1019.31 183.123C1018.64 183.123 1018.11 183.315 1017.73 183.699C1017.35 184.077 1017.15 184.66 1017.15 185.447V187.801H1021.42ZM1022.84 169.402V175.027H1026.65V168.426H1029V177.957H1014.78V168.445H1017.15V175.027H1020.54V169.402H1022.84ZM1025.27 159.334C1024.72 159.334 1024.29 159.529 1024 159.92C1023.7 160.311 1023.39 161.014 1023.06 162.029C1022.73 163.045 1022.4 163.849 1022.09 164.441C1021.21 166.056 1020.04 166.863 1018.56 166.863C1017.79 166.863 1017.11 166.648 1016.51 166.219C1015.9 165.783 1015.43 165.161 1015.09 164.354C1014.76 163.54 1014.59 162.628 1014.59 161.619C1014.59 160.604 1014.77 159.699 1015.14 158.904C1015.51 158.11 1016.02 157.495 1016.7 157.059C1017.37 156.616 1018.13 156.395 1018.98 156.395V159.324C1018.33 159.324 1017.82 159.529 1017.47 159.939C1017.1 160.35 1016.92 160.926 1016.92 161.668C1016.92 162.384 1017.07 162.941 1017.38 163.338C1017.68 163.735 1018.08 163.934 1018.57 163.934C1019.03 163.934 1019.42 163.702 1019.73 163.24C1020.04 162.771 1020.34 162.085 1020.61 161.18C1021.11 159.513 1021.73 158.299 1022.48 157.537C1023.22 156.775 1024.14 156.395 1025.25 156.395C1026.48 156.395 1027.45 156.86 1028.15 157.791C1028.85 158.722 1029.2 159.975 1029.2 161.551C1029.2 162.645 1029 163.641 1028.6 164.539C1028.2 165.438 1027.65 166.124 1026.95 166.6C1026.25 167.068 1025.45 167.303 1024.53 167.303V164.363C1026.1 164.363 1026.88 163.426 1026.88 161.551C1026.88 160.854 1026.74 160.311 1026.46 159.92C1026.17 159.529 1025.78 159.334 1025.27 159.334ZM1022.84 145.848V151.473H1026.65V144.871H1029V154.402H1014.78V144.891H1017.15V151.473H1020.54V145.848H1022.84ZM1026.07 135.125V140.262L1029 141.238V144.354L1014.78 139.061V136.346L1029 131.023V134.139L1026.07 135.125ZM1023.7 139.471V135.916L1018.38 137.703L1023.7 139.471ZM1023.79 124.432V126.766H1029V129.695H1014.78V124.412C1014.78 122.732 1015.16 121.437 1015.9 120.525C1016.65 119.614 1017.71 119.158 1019.08 119.158C1020.05 119.158 1020.86 119.37 1021.51 119.793C1022.15 120.21 1022.67 120.844 1023.05 121.697L1028.86 118.621H1029V121.766L1023.79 124.432ZM1021.42 126.766V124.402C1021.42 123.667 1021.24 123.097 1020.87 122.693C1020.49 122.29 1019.97 122.088 1019.31 122.088C1018.64 122.088 1018.11 122.28 1017.73 122.664C1017.35 123.042 1017.15 123.624 1017.15 124.412V126.766H1021.42ZM1024.26 105.76C1025.79 105.87 1027 106.437 1027.88 107.459C1028.76 108.475 1029.2 109.816 1029.2 111.482C1029.2 113.305 1028.58 114.741 1027.36 115.789C1026.13 116.831 1024.44 117.352 1022.3 117.352H1021.43C1020.06 117.352 1018.86 117.111 1017.82 116.629C1016.78 116.147 1015.98 115.46 1015.43 114.568C1014.87 113.67 1014.59 112.628 1014.59 111.443C1014.59 109.803 1015.03 108.481 1015.9 107.479C1016.78 106.476 1018.02 105.896 1019.61 105.74V108.67C1018.69 108.742 1018.02 108.999 1017.61 109.441C1017.2 109.878 1016.99 110.545 1016.99 111.443C1016.99 112.42 1017.34 113.152 1018.04 113.641C1018.74 114.122 1019.82 114.37 1021.29 114.383H1022.37C1023.91 114.383 1025.03 114.152 1025.74 113.689C1026.45 113.221 1026.8 112.485 1026.8 111.482C1026.8 110.577 1026.6 109.904 1026.19 109.461C1025.77 109.012 1025.13 108.755 1024.26 108.689V105.76ZM1029 92.2637V95.1934H1022.91V100.906H1029V103.836H1014.78V100.906H1020.54V95.1934H1014.78V92.2637H1029Z" fill="#455469"/>
<path opacity="0.8" d="M602.46 132V115.648H607.491C608.929 115.648 610.213 115.974 611.343 116.625C612.481 117.269 613.368 118.19 614.005 119.388C614.641 120.579 614.959 121.934 614.959 123.454V124.206C614.959 125.726 614.645 127.077 614.016 128.26C613.395 129.443 612.515 130.36 611.377 131.012C610.239 131.663 608.955 131.993 607.525 132H602.46ZM605.829 118.377V129.293H607.458C608.775 129.293 609.782 128.863 610.479 128.002C611.175 127.141 611.53 125.909 611.545 124.307V123.442C611.545 121.78 611.201 120.522 610.512 119.669C609.823 118.808 608.816 118.377 607.491 118.377H605.829ZM627.257 124.914H620.788V129.293H628.38V132H617.419V115.648H628.357V118.377H620.788V122.274H627.257V124.914ZM636.398 127.946L640.104 115.648H643.855L638.162 132H634.646L628.975 115.648H632.715L636.398 127.946ZM655.243 124.914H648.774V129.293H656.366V132H645.405V115.648H656.344V118.377H648.774V122.274H655.243V124.914ZM661.712 129.293H668.866V132H658.343V115.648H661.712V129.293ZM683.521 124.195C683.521 125.805 683.237 127.216 682.668 128.429C682.099 129.642 681.283 130.577 680.22 131.236C679.164 131.895 677.951 132.225 676.581 132.225C675.226 132.225 674.017 131.899 672.954 131.248C671.89 130.596 671.067 129.668 670.483 128.462C669.899 127.25 669.603 125.857 669.596 124.285V123.476C669.596 121.866 669.884 120.451 670.46 119.231C671.044 118.003 671.864 117.063 672.92 116.412C673.983 115.753 675.196 115.424 676.559 115.424C677.921 115.424 679.13 115.753 680.186 116.412C681.249 117.063 682.069 118.003 682.646 119.231C683.229 120.451 683.521 121.863 683.521 123.465V124.195ZM680.107 123.454C680.107 121.739 679.8 120.436 679.187 119.545C678.573 118.654 677.697 118.209 676.559 118.209C675.428 118.209 674.556 118.651 673.942 119.534C673.328 120.41 673.017 121.698 673.01 123.397V124.195C673.01 125.864 673.317 127.16 673.931 128.081C674.545 129.001 675.428 129.462 676.581 129.462C677.712 129.462 678.58 129.02 679.187 128.137C679.793 127.246 680.1 125.951 680.107 124.251V123.454ZM689.339 126.239V132H685.97V115.648H692.349C693.576 115.648 694.655 115.873 695.583 116.322C696.519 116.771 697.238 117.412 697.739 118.243C698.241 119.066 698.492 120.006 698.492 121.062C698.492 122.664 697.941 123.929 696.841 124.857C695.748 125.778 694.232 126.239 692.292 126.239H689.339ZM689.339 123.51H692.349C693.24 123.51 693.917 123.3 694.381 122.881C694.853 122.462 695.089 121.863 695.089 121.084C695.089 120.283 694.853 119.635 694.381 119.141C693.91 118.647 693.258 118.392 692.427 118.377H689.339V123.51ZM705.219 115.648L709.419 127.508L713.597 115.648H718.021V132H714.641V127.53L714.978 119.815L710.564 132H708.251L703.849 119.826L704.186 127.53V132H700.816V115.648H705.219ZM730.802 124.914H724.333V129.293H731.925V132H720.964V115.648H731.902V118.377H724.333V122.274H730.802V124.914ZM747.198 132H743.829L737.271 121.241V132H733.901V115.648H737.271L743.84 126.43V115.648H747.198V132ZM762.112 118.377H757.104V132H753.734V118.377H748.793V115.648H762.112V118.377Z" fill="#455469"/>
<path d="M323.77 282H317.91V253.562H323.77V282ZM329.219 282V253.562H337.969C340.469 253.562 342.702 254.129 344.668 255.262C346.647 256.382 348.19 257.983 349.297 260.066C350.404 262.137 350.957 264.493 350.957 267.137V268.445C350.957 271.089 350.41 273.439 349.316 275.496C348.236 277.553 346.706 279.148 344.727 280.281C342.747 281.414 340.514 281.987 338.027 282H329.219ZM335.078 258.309V277.293H337.91C340.202 277.293 341.953 276.544 343.164 275.047C344.375 273.549 344.993 271.408 345.02 268.621V267.117C345.02 264.227 344.421 262.039 343.223 260.555C342.025 259.057 340.273 258.309 337.969 258.309H335.078ZM372.344 269.676H361.094V277.293H374.297V282H355.234V253.562H374.258V258.309H361.094V265.086H372.344V269.676ZM393.789 276.141H383.516L381.562 282H375.332L385.918 253.562H391.348L401.992 282H395.762L393.789 276.141ZM385.098 271.395H392.207L388.633 260.75L385.098 271.395ZM419.395 274.539C419.395 273.432 419.004 272.586 418.223 272C417.441 271.401 416.035 270.776 414.004 270.125C411.973 269.461 410.365 268.81 409.18 268.172C405.951 266.427 404.336 264.077 404.336 261.121C404.336 259.585 404.766 258.217 405.625 257.02C406.497 255.809 407.741 254.865 409.355 254.188C410.983 253.51 412.806 253.172 414.824 253.172C416.855 253.172 418.665 253.543 420.254 254.285C421.842 255.014 423.073 256.049 423.945 257.391C424.831 258.732 425.273 260.255 425.273 261.961H419.414C419.414 260.659 419.004 259.65 418.184 258.934C417.363 258.204 416.211 257.84 414.727 257.84C413.294 257.84 412.181 258.146 411.387 258.758C410.592 259.357 410.195 260.151 410.195 261.141C410.195 262.065 410.658 262.84 411.582 263.465C412.52 264.09 413.893 264.676 415.703 265.223C419.036 266.225 421.465 267.469 422.988 268.953C424.512 270.438 425.273 272.286 425.273 274.5C425.273 276.961 424.342 278.895 422.48 280.301C420.618 281.694 418.112 282.391 414.961 282.391C412.773 282.391 410.781 281.993 408.984 281.199C407.188 280.392 405.814 279.292 404.863 277.898C403.926 276.505 403.457 274.891 403.457 273.055H409.336C409.336 276.193 411.211 277.762 414.961 277.762C416.354 277.762 417.441 277.482 418.223 276.922C419.004 276.349 419.395 275.555 419.395 274.539Z" fill="#455469" fill-opacity="0.8"/>
<path d="M241.125 209.472C241.125 208.503 240.783 207.763 240.099 207.25C239.416 206.726 238.185 206.179 236.408 205.609C234.63 205.028 233.223 204.459 232.187 203.9C229.361 202.374 227.948 200.317 227.948 197.731C227.948 196.387 228.324 195.19 229.076 194.142C229.84 193.083 230.928 192.257 232.34 191.664C233.764 191.072 235.36 190.775 237.125 190.775C238.903 190.775 240.486 191.1 241.876 191.75C243.266 192.388 244.343 193.293 245.106 194.467C245.881 195.64 246.269 196.973 246.269 198.466H241.142C241.142 197.326 240.783 196.444 240.065 195.817C239.347 195.179 238.339 194.86 237.04 194.86C235.787 194.86 234.813 195.128 234.118 195.663C233.423 196.187 233.075 196.882 233.075 197.748C233.075 198.557 233.48 199.235 234.289 199.782C235.109 200.329 236.311 200.841 237.895 201.32C240.811 202.197 242.936 203.285 244.269 204.584C245.602 205.883 246.269 207.501 246.269 209.438C246.269 211.591 245.454 213.283 243.825 214.513C242.195 215.732 240.002 216.342 237.245 216.342C235.331 216.342 233.588 215.994 232.016 215.299C230.443 214.593 229.241 213.63 228.41 212.411C227.589 211.192 227.179 209.779 227.179 208.173H232.323C232.323 210.919 233.964 212.292 237.245 212.292C238.464 212.292 239.416 212.047 240.099 211.557C240.783 211.055 241.125 210.36 241.125 209.472ZM270.194 204.123C270.194 206.572 269.761 208.72 268.896 210.565C268.03 212.411 266.788 213.835 265.17 214.838C263.563 215.84 261.718 216.342 259.633 216.342C257.571 216.342 255.731 215.846 254.113 214.855C252.495 213.864 251.242 212.451 250.353 210.617C249.464 208.771 249.014 206.652 249.003 204.259V203.029C249.003 200.579 249.442 198.426 250.319 196.569C251.208 194.7 252.455 193.271 254.062 192.279C255.679 191.277 257.525 190.775 259.599 190.775C261.672 190.775 263.512 191.277 265.119 192.279C266.736 193.271 267.984 194.7 268.861 196.569C269.75 198.426 270.194 200.574 270.194 203.012V204.123ZM264.999 202.995C264.999 200.386 264.532 198.403 263.598 197.047C262.663 195.692 261.33 195.014 259.599 195.014C257.878 195.014 256.551 195.686 255.617 197.03C254.682 198.363 254.21 200.323 254.198 202.909V204.123C254.198 206.663 254.665 208.634 255.6 210.036C256.534 211.437 257.878 212.138 259.633 212.138C261.353 212.138 262.675 211.465 263.598 210.121C264.521 208.765 264.988 206.794 264.999 204.208V202.995ZM279.047 211.881H289.933V216H273.92V191.117H279.047V211.881ZM311.312 191.117V207.506C311.312 210.229 310.458 212.383 308.749 213.966C307.051 215.55 304.727 216.342 301.776 216.342C298.871 216.342 296.564 215.573 294.855 214.035C293.146 212.497 292.274 210.383 292.24 207.694V191.117H297.367V207.541C297.367 209.17 297.755 210.36 298.529 211.112C299.315 211.853 300.398 212.223 301.776 212.223C304.659 212.223 306.123 210.708 306.168 207.677V191.117H311.312ZM334.247 195.27H326.625V216H321.498V195.27H313.979V191.117H334.247V195.27ZM342.638 216H337.511V191.117H342.638V216ZM367.846 204.123C367.846 206.572 367.413 208.72 366.547 210.565C365.681 212.411 364.439 213.835 362.821 214.838C361.215 215.84 359.369 216.342 357.284 216.342C355.222 216.342 353.382 215.846 351.764 214.855C350.146 213.864 348.893 212.451 348.004 210.617C347.116 208.771 346.666 206.652 346.654 204.259V203.029C346.654 200.579 347.093 198.426 347.97 196.569C348.859 194.7 350.106 193.271 351.713 192.279C353.331 191.277 355.176 190.775 357.25 190.775C359.324 190.775 361.164 191.277 362.77 192.279C364.388 193.271 365.635 194.7 366.513 196.569C367.401 198.426 367.846 200.574 367.846 203.012V204.123ZM362.65 202.995C362.65 200.386 362.183 198.403 361.249 197.047C360.315 195.692 358.982 195.014 357.25 195.014C355.53 195.014 354.202 195.686 353.268 197.03C352.334 198.363 351.861 200.323 351.85 202.909V204.123C351.85 206.663 352.317 208.634 353.251 210.036C354.185 211.437 355.53 212.138 357.284 212.138C359.005 212.138 360.326 211.465 361.249 210.121C362.172 208.765 362.639 206.794 362.65 204.208V202.995ZM391.806 216H386.679L376.698 199.628V216H371.571V191.117H376.698L386.696 207.523V191.117H391.806V216ZM409.186 209.472C409.186 208.503 408.844 207.763 408.161 207.25C407.477 206.726 406.247 206.179 404.469 205.609C402.692 205.028 401.285 204.459 400.248 203.9C397.423 202.374 396.01 200.317 396.01 197.731C396.01 196.387 396.386 195.19 397.138 194.142C397.901 193.083 398.989 192.257 400.402 191.664C401.826 191.072 403.421 190.775 405.187 190.775C406.964 190.775 408.548 191.1 409.938 191.75C411.328 192.388 412.405 193.293 413.168 194.467C413.943 195.64 414.33 196.973 414.33 198.466H409.203C409.203 197.326 408.844 196.444 408.126 195.817C407.409 195.179 406.4 194.86 405.102 194.86C403.848 194.86 402.874 195.128 402.179 195.663C401.484 196.187 401.137 196.882 401.137 197.748C401.137 198.557 401.541 199.235 402.35 199.782C403.17 200.329 404.372 200.841 405.956 201.32C408.873 202.197 410.998 203.285 412.331 204.584C413.664 205.883 414.33 207.501 414.33 209.438C414.33 211.591 413.515 213.283 411.886 214.513C410.257 215.732 408.064 216.342 405.307 216.342C403.393 216.342 401.649 215.994 400.077 215.299C398.505 214.593 397.303 213.63 396.471 212.411C395.651 211.192 395.241 209.779 395.241 208.173H400.385C400.385 210.919 402.025 212.292 405.307 212.292C406.526 212.292 407.477 212.047 408.161 211.557C408.844 211.055 409.186 210.36 409.186 209.472Z" fill="#455469" fill-opacity="0.5"/>
</g>
</svg>
